%
M48
M72
T01C0.0276
T02C0.0320
T03C0.0400
T04C0.0800
T05C0.1500
%
T01
X5100Y9100
X6100Y9100
T02
X7100Y8100
X7100Y7100
X7100Y6100
X7100Y5100
X4100Y5100
X4100Y6100
X4100Y7100
X4100Y8100
T03
X2990Y7630
X1210Y7630
X1210Y5070
X2990Y5070
X3600Y3100
X3600Y2100
X3600Y1100
X4600Y1100
X4600Y2100
X4600Y3100
X5600Y3100
X5600Y2100
X5600Y1100
X6600Y1100
X6600Y2100
X6600Y3100
X7600Y3100
X7600Y2100
X7600Y1100
X9100Y5100
X9100Y6100
X9100Y7100
X10100Y7100
X10100Y6100
X10100Y5100
X7100Y10100
X4100Y10100
T04
X5100Y10100
X6100Y10100
T05
X1600Y1600
X9600Y1600
X9600Y9600
X1600Y9600
M30
