G75*
%MOIN*%
%OFA0B0*%
%FSLAX25Y25*%
%IPPOS*%
%LPD*%
%AMOC8*
5,1,8,0,0,1.08239X$1,22.5*
%
%ADD10C,0.15600*%
%ADD11OC8,0.07400*%
%ADD12R,0.08000X0.08000*%
%ADD13OC8,0.08000*%
%ADD14C,0.08600*%
%ADD15C,0.08000*%
%ADD16C,0.07100*%
D10*
X0016000Y0016000D03*
X0096000Y0016000D03*
X0096000Y0096000D03*
X0016000Y0096000D03*
D11*
X0041000Y0081000D03*
X0041000Y0071000D03*
X0041000Y0061000D03*
X0041000Y0051000D03*
X0071000Y0051000D03*
X0071000Y0061000D03*
X0071000Y0071000D03*
X0071000Y0081000D03*
D12*
X0101000Y0051000D03*
D13*
X0101000Y0061000D03*
X0101000Y0071000D03*
X0091000Y0071000D03*
X0091000Y0061000D03*
X0091000Y0051000D03*
D14*
X0071000Y0101000D03*
X0061000Y0101000D03*
X0051000Y0101000D03*
X0041000Y0101000D03*
D15*
X0029900Y0076300D03*
X0012100Y0076300D03*
X0012100Y0050700D03*
X0029900Y0050700D03*
X0036000Y0031000D03*
X0036000Y0021000D03*
X0036000Y0011000D03*
X0046000Y0011000D03*
X0046000Y0021000D03*
X0046000Y0031000D03*
X0056000Y0031000D03*
X0056000Y0021000D03*
X0056000Y0011000D03*
X0066000Y0011000D03*
X0066000Y0021000D03*
X0066000Y0031000D03*
X0076000Y0031000D03*
X0076000Y0021000D03*
X0076000Y0011000D03*
D16*
X0061000Y0091000D03*
X0051000Y0091000D03*
M02*
