G75*
%MOIN*%
%OFA0B0*%
%FSLAX25Y25*%
%IPPOS*%
%LPD*%
%AMOC8*
5,1,8,0,0,1.08239X$1,22.5*
%
%ADD10C,0.00600*%
%ADD11C,0.00800*%
%ADD12C,0.01100*%
%ADD13C,0.00300*%
%ADD14C,0.01000*%
%ADD15C,0.00200*%
%ADD16C,0.00500*%
%ADD17C,0.00100*%
D10*
X0003113Y0032550D02*
X0003113Y0035953D01*
X0003113Y0034251D02*
X0005382Y0034251D01*
X0005382Y0032550D02*
X0005382Y0035953D01*
X0007363Y0034819D02*
X0008498Y0034819D01*
X0009065Y0034251D01*
X0009065Y0032550D01*
X0007363Y0032550D01*
X0006796Y0033117D01*
X0007363Y0033684D01*
X0009065Y0033684D01*
X0010479Y0033117D02*
X0011047Y0032550D01*
X0012748Y0032550D01*
X0014163Y0032550D02*
X0014163Y0035953D01*
X0012748Y0034819D02*
X0011047Y0034819D01*
X0010479Y0034251D01*
X0010479Y0033117D01*
X0014163Y0033684D02*
X0015864Y0034819D01*
X0017799Y0034819D02*
X0018933Y0034819D01*
X0019501Y0034251D01*
X0019501Y0032550D01*
X0017799Y0032550D01*
X0017232Y0033117D01*
X0017799Y0033684D01*
X0019501Y0033684D01*
X0020915Y0032550D02*
X0022617Y0032550D01*
X0023184Y0033117D01*
X0023184Y0034251D01*
X0022617Y0034819D01*
X0020915Y0034819D01*
X0020915Y0035953D02*
X0020915Y0032550D01*
X0024598Y0032550D02*
X0025733Y0032550D01*
X0025165Y0032550D02*
X0025165Y0035953D01*
X0024598Y0035953D01*
X0027054Y0034251D02*
X0027621Y0034819D01*
X0028755Y0034819D01*
X0029322Y0034251D01*
X0029322Y0033684D01*
X0027054Y0033684D01*
X0027054Y0033117D02*
X0027054Y0034251D01*
X0027054Y0033117D02*
X0027621Y0032550D01*
X0028755Y0032550D01*
X0020915Y0038550D02*
X0020915Y0040819D01*
X0022049Y0040819D02*
X0020915Y0039684D01*
X0019501Y0039684D02*
X0017232Y0039684D01*
X0017232Y0039117D02*
X0017232Y0040251D01*
X0017799Y0040819D01*
X0018933Y0040819D01*
X0019501Y0040251D01*
X0019501Y0039684D01*
X0018933Y0038550D02*
X0017799Y0038550D01*
X0017232Y0039117D01*
X0015817Y0039117D02*
X0015250Y0039684D01*
X0014116Y0039684D01*
X0013549Y0040251D01*
X0014116Y0040819D01*
X0015817Y0040819D01*
X0015817Y0039117D02*
X0015250Y0038550D01*
X0013549Y0038550D01*
X0012134Y0039117D02*
X0012134Y0041953D01*
X0009866Y0041953D02*
X0009866Y0039117D01*
X0010433Y0038550D01*
X0011567Y0038550D01*
X0012134Y0039117D01*
X0014163Y0033684D02*
X0015864Y0032550D01*
X0022049Y0040819D02*
X0022617Y0040819D01*
X0058730Y0063184D02*
X0059297Y0063184D01*
X0060431Y0063184D02*
X0060431Y0062617D01*
X0060431Y0063184D02*
X0062700Y0063184D01*
X0062700Y0062617D02*
X0062700Y0063751D01*
X0062700Y0065072D02*
X0060431Y0065072D01*
X0060431Y0066774D01*
X0060999Y0067341D01*
X0062700Y0067341D01*
X0062133Y0068755D02*
X0062700Y0069323D01*
X0062700Y0071024D01*
X0063267Y0071024D02*
X0063834Y0070457D01*
X0063834Y0069890D01*
X0063267Y0071024D02*
X0060431Y0071024D01*
X0060431Y0072439D02*
X0059864Y0072439D01*
X0059297Y0073006D01*
X0059297Y0074140D01*
X0059864Y0074707D01*
X0060431Y0074707D01*
X0060999Y0074140D01*
X0060999Y0073006D01*
X0060431Y0072439D01*
X0060999Y0073006D02*
X0061566Y0072439D01*
X0062133Y0072439D01*
X0062700Y0073006D01*
X0062700Y0074140D01*
X0062133Y0074707D01*
X0061566Y0074707D01*
X0060999Y0074140D01*
X0060999Y0076122D02*
X0059297Y0076122D01*
X0059297Y0078390D01*
X0060431Y0077823D02*
X0060431Y0077256D01*
X0060999Y0076122D01*
X0062133Y0076122D02*
X0062700Y0076689D01*
X0062700Y0077823D01*
X0062133Y0078390D01*
X0060999Y0078390D01*
X0060431Y0077823D01*
X0060431Y0068755D02*
X0062133Y0068755D01*
X0062700Y0061296D02*
X0062133Y0060729D01*
X0059864Y0060729D01*
X0060431Y0061296D02*
X0060431Y0060161D01*
X0059297Y0058747D02*
X0059297Y0056478D01*
X0059297Y0057613D02*
X0062700Y0057613D01*
X0062700Y0055064D02*
X0060431Y0055064D01*
X0059297Y0053929D01*
X0060431Y0052795D01*
X0062700Y0052795D01*
X0060999Y0052795D02*
X0060999Y0055064D01*
D11*
X0029400Y0011002D02*
X0026598Y0011002D01*
X0031000Y0013500D02*
X0031000Y0008500D01*
X0033500Y0006000D01*
X0038500Y0006000D01*
X0041000Y0008500D01*
X0041000Y0013500D01*
X0038500Y0016000D01*
X0041000Y0018500D01*
X0041000Y0023500D01*
X0038500Y0026000D01*
X0041000Y0028500D01*
X0041000Y0033500D01*
X0038500Y0036000D01*
X0033500Y0036000D01*
X0031000Y0033500D01*
X0031000Y0028500D01*
X0033500Y0026000D01*
X0031000Y0023500D01*
X0031000Y0018500D01*
X0033500Y0016000D01*
X0031000Y0013500D01*
X0027999Y0019601D02*
X0027999Y0022403D01*
X0026598Y0021002D02*
X0029400Y0021002D01*
X0041000Y0023500D02*
X0041000Y0018500D01*
X0043500Y0016000D01*
X0041000Y0013500D01*
X0041000Y0008500D01*
X0043500Y0006000D01*
X0048500Y0006000D01*
X0051000Y0008500D01*
X0051000Y0013500D01*
X0048500Y0016000D01*
X0051000Y0018500D01*
X0051000Y0023500D01*
X0048500Y0026000D01*
X0051000Y0028500D01*
X0051000Y0033500D01*
X0048500Y0036000D01*
X0043500Y0036000D01*
X0041000Y0033500D01*
X0041000Y0028500D01*
X0043500Y0026000D01*
X0041000Y0023500D01*
X0051000Y0023500D02*
X0051000Y0018500D01*
X0053500Y0016000D01*
X0051000Y0013500D01*
X0051000Y0008500D01*
X0053500Y0006000D01*
X0058500Y0006000D01*
X0061000Y0008500D01*
X0061000Y0013500D01*
X0058500Y0016000D01*
X0061000Y0018500D01*
X0061000Y0023500D01*
X0058500Y0026000D01*
X0061000Y0028500D01*
X0061000Y0033500D01*
X0058500Y0036000D01*
X0053500Y0036000D01*
X0051000Y0033500D01*
X0051000Y0028500D01*
X0053500Y0026000D01*
X0051000Y0023500D01*
X0061000Y0023500D02*
X0061000Y0018500D01*
X0063500Y0016000D01*
X0061000Y0013500D01*
X0061000Y0008500D01*
X0063500Y0006000D01*
X0068500Y0006000D01*
X0071000Y0008500D01*
X0071000Y0013500D01*
X0068500Y0016000D01*
X0071000Y0018500D01*
X0071000Y0023500D01*
X0068500Y0026000D01*
X0071000Y0028500D01*
X0071000Y0033500D01*
X0068500Y0036000D01*
X0063500Y0036000D01*
X0061000Y0033500D01*
X0061000Y0028500D01*
X0063500Y0026000D01*
X0061000Y0023500D01*
X0071000Y0023500D02*
X0071000Y0018500D01*
X0073500Y0016000D01*
X0071000Y0013500D01*
X0071000Y0008500D01*
X0073500Y0006000D01*
X0078500Y0006000D01*
X0081000Y0008500D01*
X0081000Y0013500D01*
X0078500Y0016000D01*
X0081000Y0018500D01*
X0081000Y0023500D01*
X0078500Y0026000D01*
X0081000Y0028500D01*
X0081000Y0033500D01*
X0078500Y0036000D01*
X0073500Y0036000D01*
X0071000Y0033500D01*
X0071000Y0028500D01*
X0073500Y0026000D01*
X0071000Y0023500D01*
X0082848Y0021002D02*
X0085650Y0021002D01*
X0084249Y0022403D02*
X0084249Y0019601D01*
X0082848Y0011002D02*
X0085650Y0011002D01*
X0086425Y0037650D02*
X0087826Y0037650D01*
X0087125Y0037650D02*
X0087125Y0040452D01*
X0086425Y0040452D01*
X0087125Y0041854D02*
X0087125Y0042554D01*
X0084623Y0041153D02*
X0084623Y0039752D01*
X0083923Y0039051D01*
X0081821Y0039051D01*
X0081821Y0037650D02*
X0081821Y0041854D01*
X0083923Y0041854D01*
X0084623Y0041153D01*
X0089494Y0040452D02*
X0092296Y0037650D01*
X0094098Y0037650D02*
X0095499Y0037650D01*
X0094799Y0037650D02*
X0094799Y0040452D01*
X0094098Y0040452D01*
X0094799Y0041854D02*
X0094799Y0042554D01*
X0092296Y0040452D02*
X0089494Y0037650D01*
X0097167Y0038351D02*
X0097167Y0039752D01*
X0097868Y0040452D01*
X0099269Y0040452D01*
X0099970Y0039752D01*
X0099970Y0039051D01*
X0097167Y0039051D01*
X0097167Y0038351D02*
X0097868Y0037650D01*
X0099269Y0037650D01*
X0101771Y0038351D02*
X0101771Y0039051D01*
X0102472Y0039752D01*
X0103873Y0039752D01*
X0104574Y0039051D01*
X0104574Y0038351D01*
X0103873Y0037650D01*
X0102472Y0037650D01*
X0101771Y0038351D01*
X0102472Y0039752D02*
X0101771Y0040452D01*
X0101771Y0041153D01*
X0102472Y0041854D01*
X0103873Y0041854D01*
X0104574Y0041153D01*
X0104574Y0040452D01*
X0103873Y0039752D01*
X0106375Y0039752D02*
X0106375Y0041854D01*
X0109178Y0041854D01*
X0108477Y0040452D02*
X0109178Y0039752D01*
X0109178Y0038351D01*
X0108477Y0037650D01*
X0107076Y0037650D01*
X0106375Y0038351D01*
X0106375Y0039752D02*
X0107776Y0040452D01*
X0108477Y0040452D01*
X0066000Y0046000D02*
X0046000Y0046000D01*
X0046000Y0086000D01*
X0050000Y0086000D01*
X0052000Y0086000D01*
X0050000Y0086000D02*
X0066000Y0086000D01*
X0066000Y0046000D01*
X0033000Y0055000D02*
X0033000Y0072000D01*
X0025000Y0075500D02*
X0017071Y0075500D01*
X0009000Y0072000D02*
X0009000Y0055000D01*
X0016953Y0051500D02*
X0025000Y0051500D01*
X0014000Y0063500D02*
X0014002Y0063672D01*
X0014008Y0063843D01*
X0014019Y0064015D01*
X0014034Y0064186D01*
X0014053Y0064357D01*
X0014076Y0064527D01*
X0014103Y0064697D01*
X0014135Y0064866D01*
X0014170Y0065034D01*
X0014210Y0065201D01*
X0014254Y0065367D01*
X0014301Y0065532D01*
X0014353Y0065696D01*
X0014409Y0065858D01*
X0014469Y0066019D01*
X0014533Y0066179D01*
X0014601Y0066337D01*
X0014672Y0066493D01*
X0014747Y0066647D01*
X0014827Y0066800D01*
X0014909Y0066950D01*
X0014996Y0067099D01*
X0015086Y0067245D01*
X0015180Y0067389D01*
X0015277Y0067531D01*
X0015378Y0067670D01*
X0015482Y0067807D01*
X0015589Y0067941D01*
X0015700Y0068072D01*
X0015813Y0068201D01*
X0015930Y0068327D01*
X0016050Y0068450D01*
X0016173Y0068570D01*
X0016299Y0068687D01*
X0016428Y0068800D01*
X0016559Y0068911D01*
X0016693Y0069018D01*
X0016830Y0069122D01*
X0016969Y0069223D01*
X0017111Y0069320D01*
X0017255Y0069414D01*
X0017401Y0069504D01*
X0017550Y0069591D01*
X0017700Y0069673D01*
X0017853Y0069753D01*
X0018007Y0069828D01*
X0018163Y0069899D01*
X0018321Y0069967D01*
X0018481Y0070031D01*
X0018642Y0070091D01*
X0018804Y0070147D01*
X0018968Y0070199D01*
X0019133Y0070246D01*
X0019299Y0070290D01*
X0019466Y0070330D01*
X0019634Y0070365D01*
X0019803Y0070397D01*
X0019973Y0070424D01*
X0020143Y0070447D01*
X0020314Y0070466D01*
X0020485Y0070481D01*
X0020657Y0070492D01*
X0020828Y0070498D01*
X0021000Y0070500D01*
X0021172Y0070498D01*
X0021343Y0070492D01*
X0021515Y0070481D01*
X0021686Y0070466D01*
X0021857Y0070447D01*
X0022027Y0070424D01*
X0022197Y0070397D01*
X0022366Y0070365D01*
X0022534Y0070330D01*
X0022701Y0070290D01*
X0022867Y0070246D01*
X0023032Y0070199D01*
X0023196Y0070147D01*
X0023358Y0070091D01*
X0023519Y0070031D01*
X0023679Y0069967D01*
X0023837Y0069899D01*
X0023993Y0069828D01*
X0024147Y0069753D01*
X0024300Y0069673D01*
X0024450Y0069591D01*
X0024599Y0069504D01*
X0024745Y0069414D01*
X0024889Y0069320D01*
X0025031Y0069223D01*
X0025170Y0069122D01*
X0025307Y0069018D01*
X0025441Y0068911D01*
X0025572Y0068800D01*
X0025701Y0068687D01*
X0025827Y0068570D01*
X0025950Y0068450D01*
X0026070Y0068327D01*
X0026187Y0068201D01*
X0026300Y0068072D01*
X0026411Y0067941D01*
X0026518Y0067807D01*
X0026622Y0067670D01*
X0026723Y0067531D01*
X0026820Y0067389D01*
X0026914Y0067245D01*
X0027004Y0067099D01*
X0027091Y0066950D01*
X0027173Y0066800D01*
X0027253Y0066647D01*
X0027328Y0066493D01*
X0027399Y0066337D01*
X0027467Y0066179D01*
X0027531Y0066019D01*
X0027591Y0065858D01*
X0027647Y0065696D01*
X0027699Y0065532D01*
X0027746Y0065367D01*
X0027790Y0065201D01*
X0027830Y0065034D01*
X0027865Y0064866D01*
X0027897Y0064697D01*
X0027924Y0064527D01*
X0027947Y0064357D01*
X0027966Y0064186D01*
X0027981Y0064015D01*
X0027992Y0063843D01*
X0027998Y0063672D01*
X0028000Y0063500D01*
X0027998Y0063328D01*
X0027992Y0063157D01*
X0027981Y0062985D01*
X0027966Y0062814D01*
X0027947Y0062643D01*
X0027924Y0062473D01*
X0027897Y0062303D01*
X0027865Y0062134D01*
X0027830Y0061966D01*
X0027790Y0061799D01*
X0027746Y0061633D01*
X0027699Y0061468D01*
X0027647Y0061304D01*
X0027591Y0061142D01*
X0027531Y0060981D01*
X0027467Y0060821D01*
X0027399Y0060663D01*
X0027328Y0060507D01*
X0027253Y0060353D01*
X0027173Y0060200D01*
X0027091Y0060050D01*
X0027004Y0059901D01*
X0026914Y0059755D01*
X0026820Y0059611D01*
X0026723Y0059469D01*
X0026622Y0059330D01*
X0026518Y0059193D01*
X0026411Y0059059D01*
X0026300Y0058928D01*
X0026187Y0058799D01*
X0026070Y0058673D01*
X0025950Y0058550D01*
X0025827Y0058430D01*
X0025701Y0058313D01*
X0025572Y0058200D01*
X0025441Y0058089D01*
X0025307Y0057982D01*
X0025170Y0057878D01*
X0025031Y0057777D01*
X0024889Y0057680D01*
X0024745Y0057586D01*
X0024599Y0057496D01*
X0024450Y0057409D01*
X0024300Y0057327D01*
X0024147Y0057247D01*
X0023993Y0057172D01*
X0023837Y0057101D01*
X0023679Y0057033D01*
X0023519Y0056969D01*
X0023358Y0056909D01*
X0023196Y0056853D01*
X0023032Y0056801D01*
X0022867Y0056754D01*
X0022701Y0056710D01*
X0022534Y0056670D01*
X0022366Y0056635D01*
X0022197Y0056603D01*
X0022027Y0056576D01*
X0021857Y0056553D01*
X0021686Y0056534D01*
X0021515Y0056519D01*
X0021343Y0056508D01*
X0021172Y0056502D01*
X0021000Y0056500D01*
X0020828Y0056502D01*
X0020657Y0056508D01*
X0020485Y0056519D01*
X0020314Y0056534D01*
X0020143Y0056553D01*
X0019973Y0056576D01*
X0019803Y0056603D01*
X0019634Y0056635D01*
X0019466Y0056670D01*
X0019299Y0056710D01*
X0019133Y0056754D01*
X0018968Y0056801D01*
X0018804Y0056853D01*
X0018642Y0056909D01*
X0018481Y0056969D01*
X0018321Y0057033D01*
X0018163Y0057101D01*
X0018007Y0057172D01*
X0017853Y0057247D01*
X0017700Y0057327D01*
X0017550Y0057409D01*
X0017401Y0057496D01*
X0017255Y0057586D01*
X0017111Y0057680D01*
X0016969Y0057777D01*
X0016830Y0057878D01*
X0016693Y0057982D01*
X0016559Y0058089D01*
X0016428Y0058200D01*
X0016299Y0058313D01*
X0016173Y0058430D01*
X0016050Y0058550D01*
X0015930Y0058673D01*
X0015813Y0058799D01*
X0015700Y0058928D01*
X0015589Y0059059D01*
X0015482Y0059193D01*
X0015378Y0059330D01*
X0015277Y0059469D01*
X0015180Y0059611D01*
X0015086Y0059755D01*
X0014996Y0059901D01*
X0014909Y0060050D01*
X0014827Y0060200D01*
X0014747Y0060353D01*
X0014672Y0060507D01*
X0014601Y0060663D01*
X0014533Y0060821D01*
X0014469Y0060981D01*
X0014409Y0061142D01*
X0014353Y0061304D01*
X0014301Y0061468D01*
X0014254Y0061633D01*
X0014210Y0061799D01*
X0014170Y0061966D01*
X0014135Y0062134D01*
X0014103Y0062303D01*
X0014076Y0062473D01*
X0014053Y0062643D01*
X0014034Y0062814D01*
X0014019Y0062985D01*
X0014008Y0063157D01*
X0014002Y0063328D01*
X0014000Y0063500D01*
X0056000Y0088500D02*
X0056000Y0093500D01*
D12*
X0063327Y0095378D02*
X0067264Y0095378D01*
X0065296Y0097346D02*
X0065296Y0093409D01*
X0047264Y0095378D02*
X0043327Y0095378D01*
D13*
X0089398Y0080853D02*
X0090632Y0080853D01*
X0090015Y0080853D02*
X0090015Y0077150D01*
X0089398Y0077150D02*
X0090632Y0077150D01*
X0091853Y0077767D02*
X0092470Y0077150D01*
X0093705Y0077150D01*
X0094322Y0077767D01*
X0095536Y0077767D02*
X0096153Y0077150D01*
X0097388Y0077150D01*
X0098005Y0077767D01*
X0098005Y0078384D01*
X0097388Y0079002D01*
X0096153Y0079002D01*
X0095536Y0079619D01*
X0095536Y0080236D01*
X0096153Y0080853D01*
X0097388Y0080853D01*
X0098005Y0080236D01*
X0099219Y0080853D02*
X0101071Y0080853D01*
X0101688Y0080236D01*
X0101688Y0079002D01*
X0101071Y0078384D01*
X0099219Y0078384D01*
X0099219Y0077150D02*
X0099219Y0080853D01*
X0094322Y0080236D02*
X0093705Y0080853D01*
X0092470Y0080853D01*
X0091853Y0080236D01*
X0091853Y0077767D01*
X0092866Y0035978D02*
X0092249Y0035361D01*
X0092249Y0034744D01*
X0092866Y0034127D01*
X0094101Y0034127D01*
X0094718Y0033509D01*
X0094718Y0032892D01*
X0094101Y0032275D01*
X0092866Y0032275D01*
X0092249Y0032892D01*
X0094718Y0035361D02*
X0094101Y0035978D01*
X0092866Y0035978D01*
X0095932Y0034127D02*
X0096549Y0034744D01*
X0097784Y0034744D01*
X0098401Y0034127D01*
X0098401Y0033509D01*
X0095932Y0033509D01*
X0095932Y0032892D02*
X0095932Y0034127D01*
X0095932Y0032892D02*
X0096549Y0032275D01*
X0097784Y0032275D01*
X0099615Y0032275D02*
X0099615Y0034744D01*
X0099615Y0033509D02*
X0100850Y0034744D01*
X0101467Y0034744D01*
X0102685Y0034744D02*
X0103919Y0032275D01*
X0105153Y0034744D01*
X0106368Y0034127D02*
X0106368Y0032892D01*
X0106985Y0032275D01*
X0108219Y0032275D01*
X0108837Y0032892D01*
X0108837Y0034127D01*
X0108219Y0034744D01*
X0106985Y0034744D01*
X0106368Y0034127D01*
D14*
X0048172Y0081000D02*
X0048174Y0081106D01*
X0048180Y0081211D01*
X0048190Y0081317D01*
X0048204Y0081421D01*
X0048221Y0081526D01*
X0048243Y0081629D01*
X0048268Y0081732D01*
X0048298Y0081834D01*
X0048331Y0081934D01*
X0048367Y0082033D01*
X0048408Y0082131D01*
X0048452Y0082227D01*
X0048500Y0082321D01*
X0048551Y0082414D01*
X0048605Y0082505D01*
X0048663Y0082593D01*
X0048725Y0082679D01*
X0048789Y0082763D01*
X0048856Y0082845D01*
X0048927Y0082924D01*
X0049000Y0083000D01*
X0049076Y0083073D01*
X0049155Y0083144D01*
X0049237Y0083211D01*
X0049321Y0083275D01*
X0049407Y0083337D01*
X0049495Y0083395D01*
X0049586Y0083449D01*
X0049679Y0083500D01*
X0049773Y0083548D01*
X0049869Y0083592D01*
X0049967Y0083633D01*
X0050066Y0083669D01*
X0050166Y0083702D01*
X0050268Y0083732D01*
X0050371Y0083757D01*
X0050474Y0083779D01*
X0050579Y0083796D01*
X0050683Y0083810D01*
X0050789Y0083820D01*
X0050894Y0083826D01*
X0051000Y0083828D01*
X0051106Y0083826D01*
X0051211Y0083820D01*
X0051317Y0083810D01*
X0051421Y0083796D01*
X0051526Y0083779D01*
X0051629Y0083757D01*
X0051732Y0083732D01*
X0051834Y0083702D01*
X0051934Y0083669D01*
X0052033Y0083633D01*
X0052131Y0083592D01*
X0052227Y0083548D01*
X0052321Y0083500D01*
X0052414Y0083449D01*
X0052505Y0083395D01*
X0052593Y0083337D01*
X0052679Y0083275D01*
X0052763Y0083211D01*
X0052845Y0083144D01*
X0052924Y0083073D01*
X0053000Y0083000D01*
X0053073Y0082924D01*
X0053144Y0082845D01*
X0053211Y0082763D01*
X0053275Y0082679D01*
X0053337Y0082593D01*
X0053395Y0082505D01*
X0053449Y0082414D01*
X0053500Y0082321D01*
X0053548Y0082227D01*
X0053592Y0082131D01*
X0053633Y0082033D01*
X0053669Y0081934D01*
X0053702Y0081834D01*
X0053732Y0081732D01*
X0053757Y0081629D01*
X0053779Y0081526D01*
X0053796Y0081421D01*
X0053810Y0081317D01*
X0053820Y0081211D01*
X0053826Y0081106D01*
X0053828Y0081000D01*
X0053826Y0080894D01*
X0053820Y0080789D01*
X0053810Y0080683D01*
X0053796Y0080579D01*
X0053779Y0080474D01*
X0053757Y0080371D01*
X0053732Y0080268D01*
X0053702Y0080166D01*
X0053669Y0080066D01*
X0053633Y0079967D01*
X0053592Y0079869D01*
X0053548Y0079773D01*
X0053500Y0079679D01*
X0053449Y0079586D01*
X0053395Y0079495D01*
X0053337Y0079407D01*
X0053275Y0079321D01*
X0053211Y0079237D01*
X0053144Y0079155D01*
X0053073Y0079076D01*
X0053000Y0079000D01*
X0052924Y0078927D01*
X0052845Y0078856D01*
X0052763Y0078789D01*
X0052679Y0078725D01*
X0052593Y0078663D01*
X0052505Y0078605D01*
X0052414Y0078551D01*
X0052321Y0078500D01*
X0052227Y0078452D01*
X0052131Y0078408D01*
X0052033Y0078367D01*
X0051934Y0078331D01*
X0051834Y0078298D01*
X0051732Y0078268D01*
X0051629Y0078243D01*
X0051526Y0078221D01*
X0051421Y0078204D01*
X0051317Y0078190D01*
X0051211Y0078180D01*
X0051106Y0078174D01*
X0051000Y0078172D01*
X0050894Y0078174D01*
X0050789Y0078180D01*
X0050683Y0078190D01*
X0050579Y0078204D01*
X0050474Y0078221D01*
X0050371Y0078243D01*
X0050268Y0078268D01*
X0050166Y0078298D01*
X0050066Y0078331D01*
X0049967Y0078367D01*
X0049869Y0078408D01*
X0049773Y0078452D01*
X0049679Y0078500D01*
X0049586Y0078551D01*
X0049495Y0078605D01*
X0049407Y0078663D01*
X0049321Y0078725D01*
X0049237Y0078789D01*
X0049155Y0078856D01*
X0049076Y0078927D01*
X0049000Y0079000D01*
X0048927Y0079076D01*
X0048856Y0079155D01*
X0048789Y0079237D01*
X0048725Y0079321D01*
X0048663Y0079407D01*
X0048605Y0079495D01*
X0048551Y0079586D01*
X0048500Y0079679D01*
X0048452Y0079773D01*
X0048408Y0079869D01*
X0048367Y0079967D01*
X0048331Y0080066D01*
X0048298Y0080166D01*
X0048268Y0080268D01*
X0048243Y0080371D01*
X0048221Y0080474D01*
X0048204Y0080579D01*
X0048190Y0080683D01*
X0048180Y0080789D01*
X0048174Y0080894D01*
X0048172Y0081000D01*
D15*
X0082448Y0073306D02*
X0082448Y0072205D01*
X0084650Y0072205D01*
X0084650Y0073306D01*
X0084283Y0073673D01*
X0082815Y0073673D01*
X0082448Y0073306D01*
X0082448Y0071463D02*
X0084650Y0071463D01*
X0082448Y0069995D01*
X0084650Y0069995D01*
X0084283Y0069253D02*
X0083549Y0069253D01*
X0083549Y0068519D01*
X0082815Y0067785D02*
X0082448Y0068152D01*
X0082448Y0068886D01*
X0082815Y0069253D01*
X0082815Y0067785D02*
X0084283Y0067785D01*
X0084650Y0068152D01*
X0084650Y0068886D01*
X0084283Y0069253D01*
X0084650Y0064412D02*
X0084650Y0063678D01*
X0084650Y0064045D02*
X0082448Y0064045D01*
X0082448Y0063678D02*
X0082448Y0064412D01*
X0082815Y0062936D02*
X0082448Y0062569D01*
X0082448Y0061835D01*
X0082815Y0061468D01*
X0083182Y0061468D01*
X0083549Y0061835D01*
X0083549Y0062569D01*
X0083916Y0062936D01*
X0084283Y0062936D01*
X0084650Y0062569D01*
X0084650Y0061835D01*
X0084283Y0061468D01*
X0084283Y0060726D02*
X0082815Y0060726D01*
X0082448Y0060359D01*
X0082448Y0059625D01*
X0082815Y0059258D01*
X0084283Y0059258D01*
X0084650Y0059625D01*
X0084650Y0060359D01*
X0084283Y0060726D01*
X0084650Y0058516D02*
X0082448Y0058516D01*
X0083182Y0057783D01*
X0082448Y0057049D01*
X0084650Y0057049D01*
X0083916Y0052568D02*
X0082448Y0052568D01*
X0082448Y0051100D02*
X0083916Y0051100D01*
X0084650Y0051834D01*
X0083916Y0052568D01*
X0083549Y0050358D02*
X0083549Y0048890D01*
X0082815Y0049624D02*
X0084283Y0049624D01*
X0107348Y0049625D02*
X0109550Y0049625D01*
X0109550Y0049258D02*
X0109550Y0049992D01*
X0109183Y0050732D02*
X0109550Y0051099D01*
X0109550Y0051833D01*
X0109183Y0052200D01*
X0108816Y0052200D01*
X0108449Y0051833D01*
X0108449Y0051099D01*
X0108082Y0050732D01*
X0107715Y0050732D01*
X0107348Y0051099D01*
X0107348Y0051833D01*
X0107715Y0052200D01*
X0107715Y0052942D02*
X0107348Y0053309D01*
X0107348Y0054042D01*
X0107715Y0054409D01*
X0109183Y0054409D01*
X0109550Y0054042D01*
X0109550Y0053309D01*
X0109183Y0052942D01*
X0107715Y0052942D01*
X0107348Y0049992D02*
X0107348Y0049258D01*
X0107348Y0048516D02*
X0109550Y0048516D01*
X0109550Y0047049D02*
X0107348Y0047049D01*
X0108082Y0047783D01*
X0107348Y0048516D01*
X0107715Y0057785D02*
X0107348Y0058152D01*
X0107348Y0058886D01*
X0107715Y0059253D01*
X0107715Y0059995D02*
X0107348Y0060362D01*
X0107348Y0061096D01*
X0107715Y0061463D01*
X0107348Y0062205D02*
X0109550Y0062205D01*
X0108816Y0062205D02*
X0107348Y0063673D01*
X0108449Y0062572D02*
X0109550Y0063673D01*
X0109183Y0061463D02*
X0109550Y0061096D01*
X0109550Y0060362D01*
X0109183Y0059995D01*
X0107715Y0059995D01*
X0108816Y0059253D02*
X0108449Y0058886D01*
X0108449Y0058152D01*
X0108082Y0057785D01*
X0107715Y0057785D01*
X0109183Y0057785D02*
X0109550Y0058152D01*
X0109550Y0058886D01*
X0109183Y0059253D01*
X0108816Y0059253D01*
X0108816Y0067785D02*
X0108816Y0068886D01*
X0108449Y0069253D01*
X0107715Y0069253D01*
X0107348Y0068886D01*
X0107348Y0067785D01*
X0109550Y0067785D01*
X0108816Y0068519D02*
X0109550Y0069253D01*
X0109183Y0069995D02*
X0109550Y0070362D01*
X0109550Y0071096D01*
X0109183Y0071463D01*
X0108816Y0071463D01*
X0108449Y0071096D01*
X0108449Y0070362D01*
X0108082Y0069995D01*
X0107715Y0069995D01*
X0107348Y0070362D01*
X0107348Y0071096D01*
X0107715Y0071463D01*
X0107348Y0072205D02*
X0107348Y0073673D01*
X0107348Y0072939D02*
X0109550Y0072939D01*
D16*
X0107250Y0044750D02*
X0107252Y0044820D01*
X0107258Y0044890D01*
X0107268Y0044959D01*
X0107281Y0045028D01*
X0107299Y0045096D01*
X0107320Y0045163D01*
X0107345Y0045228D01*
X0107374Y0045292D01*
X0107406Y0045355D01*
X0107442Y0045415D01*
X0107481Y0045473D01*
X0107523Y0045529D01*
X0107568Y0045583D01*
X0107616Y0045634D01*
X0107667Y0045682D01*
X0107721Y0045727D01*
X0107777Y0045769D01*
X0107835Y0045808D01*
X0107895Y0045844D01*
X0107958Y0045876D01*
X0108022Y0045905D01*
X0108087Y0045930D01*
X0108154Y0045951D01*
X0108222Y0045969D01*
X0108291Y0045982D01*
X0108360Y0045992D01*
X0108430Y0045998D01*
X0108500Y0046000D01*
X0108570Y0045998D01*
X0108640Y0045992D01*
X0108709Y0045982D01*
X0108778Y0045969D01*
X0108846Y0045951D01*
X0108913Y0045930D01*
X0108978Y0045905D01*
X0109042Y0045876D01*
X0109105Y0045844D01*
X0109165Y0045808D01*
X0109223Y0045769D01*
X0109279Y0045727D01*
X0109333Y0045682D01*
X0109384Y0045634D01*
X0109432Y0045583D01*
X0109477Y0045529D01*
X0109519Y0045473D01*
X0109558Y0045415D01*
X0109594Y0045355D01*
X0109626Y0045292D01*
X0109655Y0045228D01*
X0109680Y0045163D01*
X0109701Y0045096D01*
X0109719Y0045028D01*
X0109732Y0044959D01*
X0109742Y0044890D01*
X0109748Y0044820D01*
X0109750Y0044750D01*
X0109748Y0044680D01*
X0109742Y0044610D01*
X0109732Y0044541D01*
X0109719Y0044472D01*
X0109701Y0044404D01*
X0109680Y0044337D01*
X0109655Y0044272D01*
X0109626Y0044208D01*
X0109594Y0044145D01*
X0109558Y0044085D01*
X0109519Y0044027D01*
X0109477Y0043971D01*
X0109432Y0043917D01*
X0109384Y0043866D01*
X0109333Y0043818D01*
X0109279Y0043773D01*
X0109223Y0043731D01*
X0109165Y0043692D01*
X0109105Y0043656D01*
X0109042Y0043624D01*
X0108978Y0043595D01*
X0108913Y0043570D01*
X0108846Y0043549D01*
X0108778Y0043531D01*
X0108709Y0043518D01*
X0108640Y0043508D01*
X0108570Y0043502D01*
X0108500Y0043500D01*
X0108430Y0043502D01*
X0108360Y0043508D01*
X0108291Y0043518D01*
X0108222Y0043531D01*
X0108154Y0043549D01*
X0108087Y0043570D01*
X0108022Y0043595D01*
X0107958Y0043624D01*
X0107895Y0043656D01*
X0107835Y0043692D01*
X0107777Y0043731D01*
X0107721Y0043773D01*
X0107667Y0043818D01*
X0107616Y0043866D01*
X0107568Y0043917D01*
X0107523Y0043971D01*
X0107481Y0044027D01*
X0107442Y0044085D01*
X0107406Y0044145D01*
X0107374Y0044208D01*
X0107345Y0044272D01*
X0107320Y0044337D01*
X0107299Y0044404D01*
X0107281Y0044472D01*
X0107268Y0044541D01*
X0107258Y0044610D01*
X0107252Y0044680D01*
X0107250Y0044750D01*
X0076951Y0042503D02*
X0076951Y0039501D01*
X0076200Y0038750D01*
X0074699Y0038750D01*
X0073948Y0039501D01*
X0076951Y0042503D01*
X0076200Y0043254D01*
X0074699Y0043254D01*
X0073948Y0042503D01*
X0073948Y0039501D01*
X0066951Y0038750D02*
X0063948Y0038750D01*
X0065449Y0038750D02*
X0065449Y0043254D01*
X0063948Y0041753D01*
X0056951Y0041753D02*
X0056951Y0042503D01*
X0056200Y0043254D01*
X0054699Y0043254D01*
X0053948Y0042503D01*
X0056951Y0041753D02*
X0053948Y0038750D01*
X0056951Y0038750D01*
X0046951Y0039501D02*
X0046200Y0038750D01*
X0044699Y0038750D01*
X0043948Y0039501D01*
X0045449Y0041002D02*
X0046200Y0041002D01*
X0046951Y0040251D01*
X0046951Y0039501D01*
X0046200Y0041002D02*
X0046951Y0041753D01*
X0046951Y0042503D01*
X0046200Y0043254D01*
X0044699Y0043254D01*
X0043948Y0042503D01*
X0036951Y0041002D02*
X0033948Y0041002D01*
X0036200Y0043254D01*
X0036200Y0038750D01*
X0007625Y0052240D02*
X0003121Y0052240D01*
X0003121Y0054492D01*
X0003872Y0055243D01*
X0005373Y0055243D01*
X0006124Y0054492D01*
X0006124Y0052240D01*
X0006124Y0053741D02*
X0007625Y0055243D01*
X0007625Y0056844D02*
X0007625Y0059847D01*
X0006874Y0061448D02*
X0007625Y0062199D01*
X0007625Y0063700D01*
X0006874Y0064451D01*
X0006124Y0064451D01*
X0005373Y0063700D01*
X0005373Y0062199D01*
X0004622Y0061448D01*
X0003872Y0061448D01*
X0003121Y0062199D01*
X0003121Y0063700D01*
X0003872Y0064451D01*
X0003121Y0066052D02*
X0007625Y0066052D01*
X0007625Y0069055D01*
X0005373Y0067553D02*
X0005373Y0066052D01*
X0003121Y0066052D02*
X0003121Y0069055D01*
X0003121Y0070656D02*
X0003121Y0073658D01*
X0003121Y0072157D02*
X0007625Y0072157D01*
X0003121Y0059847D02*
X0003121Y0056844D01*
X0007625Y0056844D01*
X0005373Y0056844D02*
X0005373Y0058345D01*
D17*
X0056103Y0084700D02*
X0056354Y0084450D01*
X0056854Y0084450D01*
X0057104Y0084700D01*
X0057577Y0084450D02*
X0058578Y0084450D01*
X0058077Y0084450D02*
X0058077Y0085951D01*
X0057577Y0085451D01*
X0057104Y0085701D02*
X0056854Y0085951D01*
X0056354Y0085951D01*
X0056103Y0085701D01*
X0056103Y0084700D01*
M02*
