G75*
%MOIN*%
%OFA0B0*%
%FSLAX25Y25*%
%IPPOS*%
%LPD*%
%AMOC8*
5,1,8,0,0,1.08239X$1,22.5*
%
%ADD10C,0.00500*%
%ADD11C,0.00400*%
%ADD12C,0.00600*%
D10*
X0060100Y0060603D02*
X0059650Y0061053D01*
X0059650Y0061954D01*
X0060100Y0062404D01*
X0062352Y0062404D01*
X0062352Y0060603D02*
X0060100Y0060603D01*
X0059650Y0063549D02*
X0059650Y0064900D01*
X0060100Y0065351D01*
X0060551Y0064900D01*
X0060551Y0063999D01*
X0061001Y0063549D01*
X0061452Y0063999D01*
X0061452Y0065351D01*
X0061001Y0066496D02*
X0061452Y0066946D01*
X0061452Y0067847D01*
X0061001Y0068297D01*
X0060551Y0068297D01*
X0060551Y0066496D01*
X0061001Y0066496D02*
X0060100Y0066496D01*
X0059650Y0066946D01*
X0059650Y0067847D01*
X0059650Y0069442D02*
X0061452Y0069442D01*
X0061452Y0070343D02*
X0061452Y0070793D01*
X0061452Y0070343D02*
X0060551Y0069442D01*
D11*
X0057002Y0068594D02*
X0055000Y0068594D01*
X0055000Y0069595D01*
X0055334Y0069928D01*
X0056001Y0069928D01*
X0056334Y0069595D01*
X0056334Y0068594D01*
X0056001Y0067719D02*
X0055000Y0067719D01*
X0055000Y0066718D01*
X0055334Y0066384D01*
X0055667Y0066718D01*
X0055667Y0067719D01*
X0056001Y0067719D02*
X0056334Y0067385D01*
X0056334Y0066718D01*
X0056334Y0065543D02*
X0055667Y0064543D01*
X0055000Y0065543D01*
X0055000Y0064543D02*
X0057002Y0064543D01*
X0056334Y0063667D02*
X0056334Y0062666D01*
X0056001Y0062333D01*
X0055334Y0062333D01*
X0055000Y0062666D01*
X0055000Y0063667D01*
X0055000Y0061457D02*
X0055000Y0060456D01*
X0055334Y0060123D01*
X0055667Y0060456D01*
X0055667Y0061457D01*
X0056001Y0061457D02*
X0055000Y0061457D01*
X0056001Y0061457D02*
X0056334Y0061124D01*
X0056334Y0060456D01*
X0056001Y0059247D02*
X0056001Y0057913D01*
X0055000Y0057913D02*
X0057002Y0057913D01*
X0057002Y0059247D02*
X0055000Y0059247D01*
X0055000Y0070804D02*
X0055000Y0071471D01*
X0055000Y0071138D02*
X0057002Y0071138D01*
X0057002Y0070804D01*
X0056001Y0072277D02*
X0056334Y0072611D01*
X0056334Y0073278D01*
X0056001Y0073612D01*
X0055667Y0073612D01*
X0055667Y0072277D01*
X0055334Y0072277D02*
X0056001Y0072277D01*
X0055334Y0072277D02*
X0055000Y0072611D01*
X0055000Y0073278D01*
D12*
X0052703Y0058133D02*
X0052703Y0055864D01*
X0052703Y0056999D02*
X0049300Y0056999D01*
X0049300Y0059548D02*
X0049300Y0060682D01*
X0049300Y0060115D02*
X0051569Y0060115D01*
X0051569Y0059548D01*
X0052703Y0060115D02*
X0053270Y0060115D01*
X0051569Y0062003D02*
X0051569Y0063704D01*
X0051001Y0064272D01*
X0049300Y0064272D01*
X0049867Y0065686D02*
X0049300Y0066253D01*
X0049300Y0067955D01*
X0048733Y0067955D02*
X0048166Y0067388D01*
X0048166Y0066820D01*
X0048733Y0067955D02*
X0051569Y0067955D01*
X0051569Y0069369D02*
X0052136Y0069369D01*
X0052703Y0069936D01*
X0052703Y0071071D01*
X0052136Y0071638D01*
X0051569Y0071638D01*
X0051001Y0071071D01*
X0051001Y0069936D01*
X0051569Y0069369D01*
X0051001Y0069936D02*
X0050434Y0069369D01*
X0049867Y0069369D01*
X0049300Y0069936D01*
X0049300Y0071071D01*
X0049867Y0071638D01*
X0050434Y0071638D01*
X0051001Y0071071D01*
X0051001Y0073052D02*
X0051569Y0074187D01*
X0051569Y0074754D01*
X0051001Y0075321D01*
X0049867Y0075321D01*
X0049300Y0074754D01*
X0049300Y0073620D01*
X0049867Y0073052D01*
X0051001Y0073052D02*
X0052703Y0073052D01*
X0052703Y0075321D01*
X0051569Y0065686D02*
X0049867Y0065686D01*
X0049300Y0062003D02*
X0051569Y0062003D01*
M02*
