G75*
%MOIN*%
%OFA0B0*%
%FSLAX25Y25*%
%IPPOS*%
%LPD*%
%AMOC8*
5,1,8,0,0,1.08239X$1,22.5*
%
%ADD10C,0.00000*%
%ADD11OC8,0.06800*%
%ADD12R,0.07400X0.07400*%
%ADD13OC8,0.07400*%
%ADD14C,0.08000*%
%ADD15C,0.07400*%
%ADD16C,0.06500*%
%ADD17C,0.03200*%
%ADD18C,0.01200*%
D10*
X0001000Y0016000D02*
X0001000Y0096000D01*
X0008500Y0096000D02*
X0008502Y0096184D01*
X0008509Y0096368D01*
X0008520Y0096552D01*
X0008536Y0096735D01*
X0008556Y0096918D01*
X0008581Y0097100D01*
X0008610Y0097282D01*
X0008644Y0097463D01*
X0008682Y0097643D01*
X0008725Y0097822D01*
X0008772Y0098000D01*
X0008823Y0098177D01*
X0008879Y0098353D01*
X0008938Y0098527D01*
X0009003Y0098699D01*
X0009071Y0098870D01*
X0009143Y0099039D01*
X0009220Y0099207D01*
X0009301Y0099372D01*
X0009386Y0099535D01*
X0009474Y0099697D01*
X0009567Y0099856D01*
X0009664Y0100012D01*
X0009764Y0100167D01*
X0009868Y0100319D01*
X0009976Y0100468D01*
X0010087Y0100614D01*
X0010202Y0100758D01*
X0010321Y0100899D01*
X0010443Y0101037D01*
X0010568Y0101172D01*
X0010697Y0101303D01*
X0010828Y0101432D01*
X0010963Y0101557D01*
X0011101Y0101679D01*
X0011242Y0101798D01*
X0011386Y0101913D01*
X0011532Y0102024D01*
X0011681Y0102132D01*
X0011833Y0102236D01*
X0011988Y0102336D01*
X0012144Y0102433D01*
X0012303Y0102526D01*
X0012465Y0102614D01*
X0012628Y0102699D01*
X0012793Y0102780D01*
X0012961Y0102857D01*
X0013130Y0102929D01*
X0013301Y0102997D01*
X0013473Y0103062D01*
X0013647Y0103121D01*
X0013823Y0103177D01*
X0014000Y0103228D01*
X0014178Y0103275D01*
X0014357Y0103318D01*
X0014537Y0103356D01*
X0014718Y0103390D01*
X0014900Y0103419D01*
X0015082Y0103444D01*
X0015265Y0103464D01*
X0015448Y0103480D01*
X0015632Y0103491D01*
X0015816Y0103498D01*
X0016000Y0103500D01*
X0016184Y0103498D01*
X0016368Y0103491D01*
X0016552Y0103480D01*
X0016735Y0103464D01*
X0016918Y0103444D01*
X0017100Y0103419D01*
X0017282Y0103390D01*
X0017463Y0103356D01*
X0017643Y0103318D01*
X0017822Y0103275D01*
X0018000Y0103228D01*
X0018177Y0103177D01*
X0018353Y0103121D01*
X0018527Y0103062D01*
X0018699Y0102997D01*
X0018870Y0102929D01*
X0019039Y0102857D01*
X0019207Y0102780D01*
X0019372Y0102699D01*
X0019535Y0102614D01*
X0019697Y0102526D01*
X0019856Y0102433D01*
X0020012Y0102336D01*
X0020167Y0102236D01*
X0020319Y0102132D01*
X0020468Y0102024D01*
X0020614Y0101913D01*
X0020758Y0101798D01*
X0020899Y0101679D01*
X0021037Y0101557D01*
X0021172Y0101432D01*
X0021303Y0101303D01*
X0021432Y0101172D01*
X0021557Y0101037D01*
X0021679Y0100899D01*
X0021798Y0100758D01*
X0021913Y0100614D01*
X0022024Y0100468D01*
X0022132Y0100319D01*
X0022236Y0100167D01*
X0022336Y0100012D01*
X0022433Y0099856D01*
X0022526Y0099697D01*
X0022614Y0099535D01*
X0022699Y0099372D01*
X0022780Y0099207D01*
X0022857Y0099039D01*
X0022929Y0098870D01*
X0022997Y0098699D01*
X0023062Y0098527D01*
X0023121Y0098353D01*
X0023177Y0098177D01*
X0023228Y0098000D01*
X0023275Y0097822D01*
X0023318Y0097643D01*
X0023356Y0097463D01*
X0023390Y0097282D01*
X0023419Y0097100D01*
X0023444Y0096918D01*
X0023464Y0096735D01*
X0023480Y0096552D01*
X0023491Y0096368D01*
X0023498Y0096184D01*
X0023500Y0096000D01*
X0023498Y0095816D01*
X0023491Y0095632D01*
X0023480Y0095448D01*
X0023464Y0095265D01*
X0023444Y0095082D01*
X0023419Y0094900D01*
X0023390Y0094718D01*
X0023356Y0094537D01*
X0023318Y0094357D01*
X0023275Y0094178D01*
X0023228Y0094000D01*
X0023177Y0093823D01*
X0023121Y0093647D01*
X0023062Y0093473D01*
X0022997Y0093301D01*
X0022929Y0093130D01*
X0022857Y0092961D01*
X0022780Y0092793D01*
X0022699Y0092628D01*
X0022614Y0092465D01*
X0022526Y0092303D01*
X0022433Y0092144D01*
X0022336Y0091988D01*
X0022236Y0091833D01*
X0022132Y0091681D01*
X0022024Y0091532D01*
X0021913Y0091386D01*
X0021798Y0091242D01*
X0021679Y0091101D01*
X0021557Y0090963D01*
X0021432Y0090828D01*
X0021303Y0090697D01*
X0021172Y0090568D01*
X0021037Y0090443D01*
X0020899Y0090321D01*
X0020758Y0090202D01*
X0020614Y0090087D01*
X0020468Y0089976D01*
X0020319Y0089868D01*
X0020167Y0089764D01*
X0020012Y0089664D01*
X0019856Y0089567D01*
X0019697Y0089474D01*
X0019535Y0089386D01*
X0019372Y0089301D01*
X0019207Y0089220D01*
X0019039Y0089143D01*
X0018870Y0089071D01*
X0018699Y0089003D01*
X0018527Y0088938D01*
X0018353Y0088879D01*
X0018177Y0088823D01*
X0018000Y0088772D01*
X0017822Y0088725D01*
X0017643Y0088682D01*
X0017463Y0088644D01*
X0017282Y0088610D01*
X0017100Y0088581D01*
X0016918Y0088556D01*
X0016735Y0088536D01*
X0016552Y0088520D01*
X0016368Y0088509D01*
X0016184Y0088502D01*
X0016000Y0088500D01*
X0015816Y0088502D01*
X0015632Y0088509D01*
X0015448Y0088520D01*
X0015265Y0088536D01*
X0015082Y0088556D01*
X0014900Y0088581D01*
X0014718Y0088610D01*
X0014537Y0088644D01*
X0014357Y0088682D01*
X0014178Y0088725D01*
X0014000Y0088772D01*
X0013823Y0088823D01*
X0013647Y0088879D01*
X0013473Y0088938D01*
X0013301Y0089003D01*
X0013130Y0089071D01*
X0012961Y0089143D01*
X0012793Y0089220D01*
X0012628Y0089301D01*
X0012465Y0089386D01*
X0012303Y0089474D01*
X0012144Y0089567D01*
X0011988Y0089664D01*
X0011833Y0089764D01*
X0011681Y0089868D01*
X0011532Y0089976D01*
X0011386Y0090087D01*
X0011242Y0090202D01*
X0011101Y0090321D01*
X0010963Y0090443D01*
X0010828Y0090568D01*
X0010697Y0090697D01*
X0010568Y0090828D01*
X0010443Y0090963D01*
X0010321Y0091101D01*
X0010202Y0091242D01*
X0010087Y0091386D01*
X0009976Y0091532D01*
X0009868Y0091681D01*
X0009764Y0091833D01*
X0009664Y0091988D01*
X0009567Y0092144D01*
X0009474Y0092303D01*
X0009386Y0092465D01*
X0009301Y0092628D01*
X0009220Y0092793D01*
X0009143Y0092961D01*
X0009071Y0093130D01*
X0009003Y0093301D01*
X0008938Y0093473D01*
X0008879Y0093647D01*
X0008823Y0093823D01*
X0008772Y0094000D01*
X0008725Y0094178D01*
X0008682Y0094357D01*
X0008644Y0094537D01*
X0008610Y0094718D01*
X0008581Y0094900D01*
X0008556Y0095082D01*
X0008536Y0095265D01*
X0008520Y0095448D01*
X0008509Y0095632D01*
X0008502Y0095816D01*
X0008500Y0096000D01*
X0001000Y0096000D02*
X0001004Y0096362D01*
X0001018Y0096725D01*
X0001039Y0097087D01*
X0001070Y0097448D01*
X0001109Y0097808D01*
X0001157Y0098167D01*
X0001214Y0098525D01*
X0001279Y0098882D01*
X0001353Y0099237D01*
X0001436Y0099590D01*
X0001527Y0099941D01*
X0001626Y0100289D01*
X0001734Y0100635D01*
X0001850Y0100979D01*
X0001975Y0101319D01*
X0002107Y0101656D01*
X0002248Y0101990D01*
X0002397Y0102321D01*
X0002554Y0102648D01*
X0002718Y0102971D01*
X0002890Y0103290D01*
X0003070Y0103604D01*
X0003258Y0103915D01*
X0003453Y0104220D01*
X0003655Y0104521D01*
X0003865Y0104817D01*
X0004081Y0105107D01*
X0004305Y0105393D01*
X0004535Y0105673D01*
X0004772Y0105947D01*
X0005016Y0106215D01*
X0005266Y0106478D01*
X0005522Y0106734D01*
X0005785Y0106984D01*
X0006053Y0107228D01*
X0006327Y0107465D01*
X0006607Y0107695D01*
X0006893Y0107919D01*
X0007183Y0108135D01*
X0007479Y0108345D01*
X0007780Y0108547D01*
X0008085Y0108742D01*
X0008396Y0108930D01*
X0008710Y0109110D01*
X0009029Y0109282D01*
X0009352Y0109446D01*
X0009679Y0109603D01*
X0010010Y0109752D01*
X0010344Y0109893D01*
X0010681Y0110025D01*
X0011021Y0110150D01*
X0011365Y0110266D01*
X0011711Y0110374D01*
X0012059Y0110473D01*
X0012410Y0110564D01*
X0012763Y0110647D01*
X0013118Y0110721D01*
X0013475Y0110786D01*
X0013833Y0110843D01*
X0014192Y0110891D01*
X0014552Y0110930D01*
X0014913Y0110961D01*
X0015275Y0110982D01*
X0015638Y0110996D01*
X0016000Y0111000D01*
X0096000Y0111000D01*
X0088500Y0096000D02*
X0088502Y0096184D01*
X0088509Y0096368D01*
X0088520Y0096552D01*
X0088536Y0096735D01*
X0088556Y0096918D01*
X0088581Y0097100D01*
X0088610Y0097282D01*
X0088644Y0097463D01*
X0088682Y0097643D01*
X0088725Y0097822D01*
X0088772Y0098000D01*
X0088823Y0098177D01*
X0088879Y0098353D01*
X0088938Y0098527D01*
X0089003Y0098699D01*
X0089071Y0098870D01*
X0089143Y0099039D01*
X0089220Y0099207D01*
X0089301Y0099372D01*
X0089386Y0099535D01*
X0089474Y0099697D01*
X0089567Y0099856D01*
X0089664Y0100012D01*
X0089764Y0100167D01*
X0089868Y0100319D01*
X0089976Y0100468D01*
X0090087Y0100614D01*
X0090202Y0100758D01*
X0090321Y0100899D01*
X0090443Y0101037D01*
X0090568Y0101172D01*
X0090697Y0101303D01*
X0090828Y0101432D01*
X0090963Y0101557D01*
X0091101Y0101679D01*
X0091242Y0101798D01*
X0091386Y0101913D01*
X0091532Y0102024D01*
X0091681Y0102132D01*
X0091833Y0102236D01*
X0091988Y0102336D01*
X0092144Y0102433D01*
X0092303Y0102526D01*
X0092465Y0102614D01*
X0092628Y0102699D01*
X0092793Y0102780D01*
X0092961Y0102857D01*
X0093130Y0102929D01*
X0093301Y0102997D01*
X0093473Y0103062D01*
X0093647Y0103121D01*
X0093823Y0103177D01*
X0094000Y0103228D01*
X0094178Y0103275D01*
X0094357Y0103318D01*
X0094537Y0103356D01*
X0094718Y0103390D01*
X0094900Y0103419D01*
X0095082Y0103444D01*
X0095265Y0103464D01*
X0095448Y0103480D01*
X0095632Y0103491D01*
X0095816Y0103498D01*
X0096000Y0103500D01*
X0096184Y0103498D01*
X0096368Y0103491D01*
X0096552Y0103480D01*
X0096735Y0103464D01*
X0096918Y0103444D01*
X0097100Y0103419D01*
X0097282Y0103390D01*
X0097463Y0103356D01*
X0097643Y0103318D01*
X0097822Y0103275D01*
X0098000Y0103228D01*
X0098177Y0103177D01*
X0098353Y0103121D01*
X0098527Y0103062D01*
X0098699Y0102997D01*
X0098870Y0102929D01*
X0099039Y0102857D01*
X0099207Y0102780D01*
X0099372Y0102699D01*
X0099535Y0102614D01*
X0099697Y0102526D01*
X0099856Y0102433D01*
X0100012Y0102336D01*
X0100167Y0102236D01*
X0100319Y0102132D01*
X0100468Y0102024D01*
X0100614Y0101913D01*
X0100758Y0101798D01*
X0100899Y0101679D01*
X0101037Y0101557D01*
X0101172Y0101432D01*
X0101303Y0101303D01*
X0101432Y0101172D01*
X0101557Y0101037D01*
X0101679Y0100899D01*
X0101798Y0100758D01*
X0101913Y0100614D01*
X0102024Y0100468D01*
X0102132Y0100319D01*
X0102236Y0100167D01*
X0102336Y0100012D01*
X0102433Y0099856D01*
X0102526Y0099697D01*
X0102614Y0099535D01*
X0102699Y0099372D01*
X0102780Y0099207D01*
X0102857Y0099039D01*
X0102929Y0098870D01*
X0102997Y0098699D01*
X0103062Y0098527D01*
X0103121Y0098353D01*
X0103177Y0098177D01*
X0103228Y0098000D01*
X0103275Y0097822D01*
X0103318Y0097643D01*
X0103356Y0097463D01*
X0103390Y0097282D01*
X0103419Y0097100D01*
X0103444Y0096918D01*
X0103464Y0096735D01*
X0103480Y0096552D01*
X0103491Y0096368D01*
X0103498Y0096184D01*
X0103500Y0096000D01*
X0103498Y0095816D01*
X0103491Y0095632D01*
X0103480Y0095448D01*
X0103464Y0095265D01*
X0103444Y0095082D01*
X0103419Y0094900D01*
X0103390Y0094718D01*
X0103356Y0094537D01*
X0103318Y0094357D01*
X0103275Y0094178D01*
X0103228Y0094000D01*
X0103177Y0093823D01*
X0103121Y0093647D01*
X0103062Y0093473D01*
X0102997Y0093301D01*
X0102929Y0093130D01*
X0102857Y0092961D01*
X0102780Y0092793D01*
X0102699Y0092628D01*
X0102614Y0092465D01*
X0102526Y0092303D01*
X0102433Y0092144D01*
X0102336Y0091988D01*
X0102236Y0091833D01*
X0102132Y0091681D01*
X0102024Y0091532D01*
X0101913Y0091386D01*
X0101798Y0091242D01*
X0101679Y0091101D01*
X0101557Y0090963D01*
X0101432Y0090828D01*
X0101303Y0090697D01*
X0101172Y0090568D01*
X0101037Y0090443D01*
X0100899Y0090321D01*
X0100758Y0090202D01*
X0100614Y0090087D01*
X0100468Y0089976D01*
X0100319Y0089868D01*
X0100167Y0089764D01*
X0100012Y0089664D01*
X0099856Y0089567D01*
X0099697Y0089474D01*
X0099535Y0089386D01*
X0099372Y0089301D01*
X0099207Y0089220D01*
X0099039Y0089143D01*
X0098870Y0089071D01*
X0098699Y0089003D01*
X0098527Y0088938D01*
X0098353Y0088879D01*
X0098177Y0088823D01*
X0098000Y0088772D01*
X0097822Y0088725D01*
X0097643Y0088682D01*
X0097463Y0088644D01*
X0097282Y0088610D01*
X0097100Y0088581D01*
X0096918Y0088556D01*
X0096735Y0088536D01*
X0096552Y0088520D01*
X0096368Y0088509D01*
X0096184Y0088502D01*
X0096000Y0088500D01*
X0095816Y0088502D01*
X0095632Y0088509D01*
X0095448Y0088520D01*
X0095265Y0088536D01*
X0095082Y0088556D01*
X0094900Y0088581D01*
X0094718Y0088610D01*
X0094537Y0088644D01*
X0094357Y0088682D01*
X0094178Y0088725D01*
X0094000Y0088772D01*
X0093823Y0088823D01*
X0093647Y0088879D01*
X0093473Y0088938D01*
X0093301Y0089003D01*
X0093130Y0089071D01*
X0092961Y0089143D01*
X0092793Y0089220D01*
X0092628Y0089301D01*
X0092465Y0089386D01*
X0092303Y0089474D01*
X0092144Y0089567D01*
X0091988Y0089664D01*
X0091833Y0089764D01*
X0091681Y0089868D01*
X0091532Y0089976D01*
X0091386Y0090087D01*
X0091242Y0090202D01*
X0091101Y0090321D01*
X0090963Y0090443D01*
X0090828Y0090568D01*
X0090697Y0090697D01*
X0090568Y0090828D01*
X0090443Y0090963D01*
X0090321Y0091101D01*
X0090202Y0091242D01*
X0090087Y0091386D01*
X0089976Y0091532D01*
X0089868Y0091681D01*
X0089764Y0091833D01*
X0089664Y0091988D01*
X0089567Y0092144D01*
X0089474Y0092303D01*
X0089386Y0092465D01*
X0089301Y0092628D01*
X0089220Y0092793D01*
X0089143Y0092961D01*
X0089071Y0093130D01*
X0089003Y0093301D01*
X0088938Y0093473D01*
X0088879Y0093647D01*
X0088823Y0093823D01*
X0088772Y0094000D01*
X0088725Y0094178D01*
X0088682Y0094357D01*
X0088644Y0094537D01*
X0088610Y0094718D01*
X0088581Y0094900D01*
X0088556Y0095082D01*
X0088536Y0095265D01*
X0088520Y0095448D01*
X0088509Y0095632D01*
X0088502Y0095816D01*
X0088500Y0096000D01*
X0096000Y0111000D02*
X0096362Y0110996D01*
X0096725Y0110982D01*
X0097087Y0110961D01*
X0097448Y0110930D01*
X0097808Y0110891D01*
X0098167Y0110843D01*
X0098525Y0110786D01*
X0098882Y0110721D01*
X0099237Y0110647D01*
X0099590Y0110564D01*
X0099941Y0110473D01*
X0100289Y0110374D01*
X0100635Y0110266D01*
X0100979Y0110150D01*
X0101319Y0110025D01*
X0101656Y0109893D01*
X0101990Y0109752D01*
X0102321Y0109603D01*
X0102648Y0109446D01*
X0102971Y0109282D01*
X0103290Y0109110D01*
X0103604Y0108930D01*
X0103915Y0108742D01*
X0104220Y0108547D01*
X0104521Y0108345D01*
X0104817Y0108135D01*
X0105107Y0107919D01*
X0105393Y0107695D01*
X0105673Y0107465D01*
X0105947Y0107228D01*
X0106215Y0106984D01*
X0106478Y0106734D01*
X0106734Y0106478D01*
X0106984Y0106215D01*
X0107228Y0105947D01*
X0107465Y0105673D01*
X0107695Y0105393D01*
X0107919Y0105107D01*
X0108135Y0104817D01*
X0108345Y0104521D01*
X0108547Y0104220D01*
X0108742Y0103915D01*
X0108930Y0103604D01*
X0109110Y0103290D01*
X0109282Y0102971D01*
X0109446Y0102648D01*
X0109603Y0102321D01*
X0109752Y0101990D01*
X0109893Y0101656D01*
X0110025Y0101319D01*
X0110150Y0100979D01*
X0110266Y0100635D01*
X0110374Y0100289D01*
X0110473Y0099941D01*
X0110564Y0099590D01*
X0110647Y0099237D01*
X0110721Y0098882D01*
X0110786Y0098525D01*
X0110843Y0098167D01*
X0110891Y0097808D01*
X0110930Y0097448D01*
X0110961Y0097087D01*
X0110982Y0096725D01*
X0110996Y0096362D01*
X0111000Y0096000D01*
X0111000Y0016000D01*
X0088500Y0016000D02*
X0088502Y0016184D01*
X0088509Y0016368D01*
X0088520Y0016552D01*
X0088536Y0016735D01*
X0088556Y0016918D01*
X0088581Y0017100D01*
X0088610Y0017282D01*
X0088644Y0017463D01*
X0088682Y0017643D01*
X0088725Y0017822D01*
X0088772Y0018000D01*
X0088823Y0018177D01*
X0088879Y0018353D01*
X0088938Y0018527D01*
X0089003Y0018699D01*
X0089071Y0018870D01*
X0089143Y0019039D01*
X0089220Y0019207D01*
X0089301Y0019372D01*
X0089386Y0019535D01*
X0089474Y0019697D01*
X0089567Y0019856D01*
X0089664Y0020012D01*
X0089764Y0020167D01*
X0089868Y0020319D01*
X0089976Y0020468D01*
X0090087Y0020614D01*
X0090202Y0020758D01*
X0090321Y0020899D01*
X0090443Y0021037D01*
X0090568Y0021172D01*
X0090697Y0021303D01*
X0090828Y0021432D01*
X0090963Y0021557D01*
X0091101Y0021679D01*
X0091242Y0021798D01*
X0091386Y0021913D01*
X0091532Y0022024D01*
X0091681Y0022132D01*
X0091833Y0022236D01*
X0091988Y0022336D01*
X0092144Y0022433D01*
X0092303Y0022526D01*
X0092465Y0022614D01*
X0092628Y0022699D01*
X0092793Y0022780D01*
X0092961Y0022857D01*
X0093130Y0022929D01*
X0093301Y0022997D01*
X0093473Y0023062D01*
X0093647Y0023121D01*
X0093823Y0023177D01*
X0094000Y0023228D01*
X0094178Y0023275D01*
X0094357Y0023318D01*
X0094537Y0023356D01*
X0094718Y0023390D01*
X0094900Y0023419D01*
X0095082Y0023444D01*
X0095265Y0023464D01*
X0095448Y0023480D01*
X0095632Y0023491D01*
X0095816Y0023498D01*
X0096000Y0023500D01*
X0096184Y0023498D01*
X0096368Y0023491D01*
X0096552Y0023480D01*
X0096735Y0023464D01*
X0096918Y0023444D01*
X0097100Y0023419D01*
X0097282Y0023390D01*
X0097463Y0023356D01*
X0097643Y0023318D01*
X0097822Y0023275D01*
X0098000Y0023228D01*
X0098177Y0023177D01*
X0098353Y0023121D01*
X0098527Y0023062D01*
X0098699Y0022997D01*
X0098870Y0022929D01*
X0099039Y0022857D01*
X0099207Y0022780D01*
X0099372Y0022699D01*
X0099535Y0022614D01*
X0099697Y0022526D01*
X0099856Y0022433D01*
X0100012Y0022336D01*
X0100167Y0022236D01*
X0100319Y0022132D01*
X0100468Y0022024D01*
X0100614Y0021913D01*
X0100758Y0021798D01*
X0100899Y0021679D01*
X0101037Y0021557D01*
X0101172Y0021432D01*
X0101303Y0021303D01*
X0101432Y0021172D01*
X0101557Y0021037D01*
X0101679Y0020899D01*
X0101798Y0020758D01*
X0101913Y0020614D01*
X0102024Y0020468D01*
X0102132Y0020319D01*
X0102236Y0020167D01*
X0102336Y0020012D01*
X0102433Y0019856D01*
X0102526Y0019697D01*
X0102614Y0019535D01*
X0102699Y0019372D01*
X0102780Y0019207D01*
X0102857Y0019039D01*
X0102929Y0018870D01*
X0102997Y0018699D01*
X0103062Y0018527D01*
X0103121Y0018353D01*
X0103177Y0018177D01*
X0103228Y0018000D01*
X0103275Y0017822D01*
X0103318Y0017643D01*
X0103356Y0017463D01*
X0103390Y0017282D01*
X0103419Y0017100D01*
X0103444Y0016918D01*
X0103464Y0016735D01*
X0103480Y0016552D01*
X0103491Y0016368D01*
X0103498Y0016184D01*
X0103500Y0016000D01*
X0103498Y0015816D01*
X0103491Y0015632D01*
X0103480Y0015448D01*
X0103464Y0015265D01*
X0103444Y0015082D01*
X0103419Y0014900D01*
X0103390Y0014718D01*
X0103356Y0014537D01*
X0103318Y0014357D01*
X0103275Y0014178D01*
X0103228Y0014000D01*
X0103177Y0013823D01*
X0103121Y0013647D01*
X0103062Y0013473D01*
X0102997Y0013301D01*
X0102929Y0013130D01*
X0102857Y0012961D01*
X0102780Y0012793D01*
X0102699Y0012628D01*
X0102614Y0012465D01*
X0102526Y0012303D01*
X0102433Y0012144D01*
X0102336Y0011988D01*
X0102236Y0011833D01*
X0102132Y0011681D01*
X0102024Y0011532D01*
X0101913Y0011386D01*
X0101798Y0011242D01*
X0101679Y0011101D01*
X0101557Y0010963D01*
X0101432Y0010828D01*
X0101303Y0010697D01*
X0101172Y0010568D01*
X0101037Y0010443D01*
X0100899Y0010321D01*
X0100758Y0010202D01*
X0100614Y0010087D01*
X0100468Y0009976D01*
X0100319Y0009868D01*
X0100167Y0009764D01*
X0100012Y0009664D01*
X0099856Y0009567D01*
X0099697Y0009474D01*
X0099535Y0009386D01*
X0099372Y0009301D01*
X0099207Y0009220D01*
X0099039Y0009143D01*
X0098870Y0009071D01*
X0098699Y0009003D01*
X0098527Y0008938D01*
X0098353Y0008879D01*
X0098177Y0008823D01*
X0098000Y0008772D01*
X0097822Y0008725D01*
X0097643Y0008682D01*
X0097463Y0008644D01*
X0097282Y0008610D01*
X0097100Y0008581D01*
X0096918Y0008556D01*
X0096735Y0008536D01*
X0096552Y0008520D01*
X0096368Y0008509D01*
X0096184Y0008502D01*
X0096000Y0008500D01*
X0095816Y0008502D01*
X0095632Y0008509D01*
X0095448Y0008520D01*
X0095265Y0008536D01*
X0095082Y0008556D01*
X0094900Y0008581D01*
X0094718Y0008610D01*
X0094537Y0008644D01*
X0094357Y0008682D01*
X0094178Y0008725D01*
X0094000Y0008772D01*
X0093823Y0008823D01*
X0093647Y0008879D01*
X0093473Y0008938D01*
X0093301Y0009003D01*
X0093130Y0009071D01*
X0092961Y0009143D01*
X0092793Y0009220D01*
X0092628Y0009301D01*
X0092465Y0009386D01*
X0092303Y0009474D01*
X0092144Y0009567D01*
X0091988Y0009664D01*
X0091833Y0009764D01*
X0091681Y0009868D01*
X0091532Y0009976D01*
X0091386Y0010087D01*
X0091242Y0010202D01*
X0091101Y0010321D01*
X0090963Y0010443D01*
X0090828Y0010568D01*
X0090697Y0010697D01*
X0090568Y0010828D01*
X0090443Y0010963D01*
X0090321Y0011101D01*
X0090202Y0011242D01*
X0090087Y0011386D01*
X0089976Y0011532D01*
X0089868Y0011681D01*
X0089764Y0011833D01*
X0089664Y0011988D01*
X0089567Y0012144D01*
X0089474Y0012303D01*
X0089386Y0012465D01*
X0089301Y0012628D01*
X0089220Y0012793D01*
X0089143Y0012961D01*
X0089071Y0013130D01*
X0089003Y0013301D01*
X0088938Y0013473D01*
X0088879Y0013647D01*
X0088823Y0013823D01*
X0088772Y0014000D01*
X0088725Y0014178D01*
X0088682Y0014357D01*
X0088644Y0014537D01*
X0088610Y0014718D01*
X0088581Y0014900D01*
X0088556Y0015082D01*
X0088536Y0015265D01*
X0088520Y0015448D01*
X0088509Y0015632D01*
X0088502Y0015816D01*
X0088500Y0016000D01*
X0096000Y0001000D02*
X0096362Y0001004D01*
X0096725Y0001018D01*
X0097087Y0001039D01*
X0097448Y0001070D01*
X0097808Y0001109D01*
X0098167Y0001157D01*
X0098525Y0001214D01*
X0098882Y0001279D01*
X0099237Y0001353D01*
X0099590Y0001436D01*
X0099941Y0001527D01*
X0100289Y0001626D01*
X0100635Y0001734D01*
X0100979Y0001850D01*
X0101319Y0001975D01*
X0101656Y0002107D01*
X0101990Y0002248D01*
X0102321Y0002397D01*
X0102648Y0002554D01*
X0102971Y0002718D01*
X0103290Y0002890D01*
X0103604Y0003070D01*
X0103915Y0003258D01*
X0104220Y0003453D01*
X0104521Y0003655D01*
X0104817Y0003865D01*
X0105107Y0004081D01*
X0105393Y0004305D01*
X0105673Y0004535D01*
X0105947Y0004772D01*
X0106215Y0005016D01*
X0106478Y0005266D01*
X0106734Y0005522D01*
X0106984Y0005785D01*
X0107228Y0006053D01*
X0107465Y0006327D01*
X0107695Y0006607D01*
X0107919Y0006893D01*
X0108135Y0007183D01*
X0108345Y0007479D01*
X0108547Y0007780D01*
X0108742Y0008085D01*
X0108930Y0008396D01*
X0109110Y0008710D01*
X0109282Y0009029D01*
X0109446Y0009352D01*
X0109603Y0009679D01*
X0109752Y0010010D01*
X0109893Y0010344D01*
X0110025Y0010681D01*
X0110150Y0011021D01*
X0110266Y0011365D01*
X0110374Y0011711D01*
X0110473Y0012059D01*
X0110564Y0012410D01*
X0110647Y0012763D01*
X0110721Y0013118D01*
X0110786Y0013475D01*
X0110843Y0013833D01*
X0110891Y0014192D01*
X0110930Y0014552D01*
X0110961Y0014913D01*
X0110982Y0015275D01*
X0110996Y0015638D01*
X0111000Y0016000D01*
X0096000Y0001000D02*
X0016000Y0001000D01*
X0008500Y0016000D02*
X0008502Y0016184D01*
X0008509Y0016368D01*
X0008520Y0016552D01*
X0008536Y0016735D01*
X0008556Y0016918D01*
X0008581Y0017100D01*
X0008610Y0017282D01*
X0008644Y0017463D01*
X0008682Y0017643D01*
X0008725Y0017822D01*
X0008772Y0018000D01*
X0008823Y0018177D01*
X0008879Y0018353D01*
X0008938Y0018527D01*
X0009003Y0018699D01*
X0009071Y0018870D01*
X0009143Y0019039D01*
X0009220Y0019207D01*
X0009301Y0019372D01*
X0009386Y0019535D01*
X0009474Y0019697D01*
X0009567Y0019856D01*
X0009664Y0020012D01*
X0009764Y0020167D01*
X0009868Y0020319D01*
X0009976Y0020468D01*
X0010087Y0020614D01*
X0010202Y0020758D01*
X0010321Y0020899D01*
X0010443Y0021037D01*
X0010568Y0021172D01*
X0010697Y0021303D01*
X0010828Y0021432D01*
X0010963Y0021557D01*
X0011101Y0021679D01*
X0011242Y0021798D01*
X0011386Y0021913D01*
X0011532Y0022024D01*
X0011681Y0022132D01*
X0011833Y0022236D01*
X0011988Y0022336D01*
X0012144Y0022433D01*
X0012303Y0022526D01*
X0012465Y0022614D01*
X0012628Y0022699D01*
X0012793Y0022780D01*
X0012961Y0022857D01*
X0013130Y0022929D01*
X0013301Y0022997D01*
X0013473Y0023062D01*
X0013647Y0023121D01*
X0013823Y0023177D01*
X0014000Y0023228D01*
X0014178Y0023275D01*
X0014357Y0023318D01*
X0014537Y0023356D01*
X0014718Y0023390D01*
X0014900Y0023419D01*
X0015082Y0023444D01*
X0015265Y0023464D01*
X0015448Y0023480D01*
X0015632Y0023491D01*
X0015816Y0023498D01*
X0016000Y0023500D01*
X0016184Y0023498D01*
X0016368Y0023491D01*
X0016552Y0023480D01*
X0016735Y0023464D01*
X0016918Y0023444D01*
X0017100Y0023419D01*
X0017282Y0023390D01*
X0017463Y0023356D01*
X0017643Y0023318D01*
X0017822Y0023275D01*
X0018000Y0023228D01*
X0018177Y0023177D01*
X0018353Y0023121D01*
X0018527Y0023062D01*
X0018699Y0022997D01*
X0018870Y0022929D01*
X0019039Y0022857D01*
X0019207Y0022780D01*
X0019372Y0022699D01*
X0019535Y0022614D01*
X0019697Y0022526D01*
X0019856Y0022433D01*
X0020012Y0022336D01*
X0020167Y0022236D01*
X0020319Y0022132D01*
X0020468Y0022024D01*
X0020614Y0021913D01*
X0020758Y0021798D01*
X0020899Y0021679D01*
X0021037Y0021557D01*
X0021172Y0021432D01*
X0021303Y0021303D01*
X0021432Y0021172D01*
X0021557Y0021037D01*
X0021679Y0020899D01*
X0021798Y0020758D01*
X0021913Y0020614D01*
X0022024Y0020468D01*
X0022132Y0020319D01*
X0022236Y0020167D01*
X0022336Y0020012D01*
X0022433Y0019856D01*
X0022526Y0019697D01*
X0022614Y0019535D01*
X0022699Y0019372D01*
X0022780Y0019207D01*
X0022857Y0019039D01*
X0022929Y0018870D01*
X0022997Y0018699D01*
X0023062Y0018527D01*
X0023121Y0018353D01*
X0023177Y0018177D01*
X0023228Y0018000D01*
X0023275Y0017822D01*
X0023318Y0017643D01*
X0023356Y0017463D01*
X0023390Y0017282D01*
X0023419Y0017100D01*
X0023444Y0016918D01*
X0023464Y0016735D01*
X0023480Y0016552D01*
X0023491Y0016368D01*
X0023498Y0016184D01*
X0023500Y0016000D01*
X0023498Y0015816D01*
X0023491Y0015632D01*
X0023480Y0015448D01*
X0023464Y0015265D01*
X0023444Y0015082D01*
X0023419Y0014900D01*
X0023390Y0014718D01*
X0023356Y0014537D01*
X0023318Y0014357D01*
X0023275Y0014178D01*
X0023228Y0014000D01*
X0023177Y0013823D01*
X0023121Y0013647D01*
X0023062Y0013473D01*
X0022997Y0013301D01*
X0022929Y0013130D01*
X0022857Y0012961D01*
X0022780Y0012793D01*
X0022699Y0012628D01*
X0022614Y0012465D01*
X0022526Y0012303D01*
X0022433Y0012144D01*
X0022336Y0011988D01*
X0022236Y0011833D01*
X0022132Y0011681D01*
X0022024Y0011532D01*
X0021913Y0011386D01*
X0021798Y0011242D01*
X0021679Y0011101D01*
X0021557Y0010963D01*
X0021432Y0010828D01*
X0021303Y0010697D01*
X0021172Y0010568D01*
X0021037Y0010443D01*
X0020899Y0010321D01*
X0020758Y0010202D01*
X0020614Y0010087D01*
X0020468Y0009976D01*
X0020319Y0009868D01*
X0020167Y0009764D01*
X0020012Y0009664D01*
X0019856Y0009567D01*
X0019697Y0009474D01*
X0019535Y0009386D01*
X0019372Y0009301D01*
X0019207Y0009220D01*
X0019039Y0009143D01*
X0018870Y0009071D01*
X0018699Y0009003D01*
X0018527Y0008938D01*
X0018353Y0008879D01*
X0018177Y0008823D01*
X0018000Y0008772D01*
X0017822Y0008725D01*
X0017643Y0008682D01*
X0017463Y0008644D01*
X0017282Y0008610D01*
X0017100Y0008581D01*
X0016918Y0008556D01*
X0016735Y0008536D01*
X0016552Y0008520D01*
X0016368Y0008509D01*
X0016184Y0008502D01*
X0016000Y0008500D01*
X0015816Y0008502D01*
X0015632Y0008509D01*
X0015448Y0008520D01*
X0015265Y0008536D01*
X0015082Y0008556D01*
X0014900Y0008581D01*
X0014718Y0008610D01*
X0014537Y0008644D01*
X0014357Y0008682D01*
X0014178Y0008725D01*
X0014000Y0008772D01*
X0013823Y0008823D01*
X0013647Y0008879D01*
X0013473Y0008938D01*
X0013301Y0009003D01*
X0013130Y0009071D01*
X0012961Y0009143D01*
X0012793Y0009220D01*
X0012628Y0009301D01*
X0012465Y0009386D01*
X0012303Y0009474D01*
X0012144Y0009567D01*
X0011988Y0009664D01*
X0011833Y0009764D01*
X0011681Y0009868D01*
X0011532Y0009976D01*
X0011386Y0010087D01*
X0011242Y0010202D01*
X0011101Y0010321D01*
X0010963Y0010443D01*
X0010828Y0010568D01*
X0010697Y0010697D01*
X0010568Y0010828D01*
X0010443Y0010963D01*
X0010321Y0011101D01*
X0010202Y0011242D01*
X0010087Y0011386D01*
X0009976Y0011532D01*
X0009868Y0011681D01*
X0009764Y0011833D01*
X0009664Y0011988D01*
X0009567Y0012144D01*
X0009474Y0012303D01*
X0009386Y0012465D01*
X0009301Y0012628D01*
X0009220Y0012793D01*
X0009143Y0012961D01*
X0009071Y0013130D01*
X0009003Y0013301D01*
X0008938Y0013473D01*
X0008879Y0013647D01*
X0008823Y0013823D01*
X0008772Y0014000D01*
X0008725Y0014178D01*
X0008682Y0014357D01*
X0008644Y0014537D01*
X0008610Y0014718D01*
X0008581Y0014900D01*
X0008556Y0015082D01*
X0008536Y0015265D01*
X0008520Y0015448D01*
X0008509Y0015632D01*
X0008502Y0015816D01*
X0008500Y0016000D01*
X0001000Y0016000D02*
X0001004Y0015638D01*
X0001018Y0015275D01*
X0001039Y0014913D01*
X0001070Y0014552D01*
X0001109Y0014192D01*
X0001157Y0013833D01*
X0001214Y0013475D01*
X0001279Y0013118D01*
X0001353Y0012763D01*
X0001436Y0012410D01*
X0001527Y0012059D01*
X0001626Y0011711D01*
X0001734Y0011365D01*
X0001850Y0011021D01*
X0001975Y0010681D01*
X0002107Y0010344D01*
X0002248Y0010010D01*
X0002397Y0009679D01*
X0002554Y0009352D01*
X0002718Y0009029D01*
X0002890Y0008710D01*
X0003070Y0008396D01*
X0003258Y0008085D01*
X0003453Y0007780D01*
X0003655Y0007479D01*
X0003865Y0007183D01*
X0004081Y0006893D01*
X0004305Y0006607D01*
X0004535Y0006327D01*
X0004772Y0006053D01*
X0005016Y0005785D01*
X0005266Y0005522D01*
X0005522Y0005266D01*
X0005785Y0005016D01*
X0006053Y0004772D01*
X0006327Y0004535D01*
X0006607Y0004305D01*
X0006893Y0004081D01*
X0007183Y0003865D01*
X0007479Y0003655D01*
X0007780Y0003453D01*
X0008085Y0003258D01*
X0008396Y0003070D01*
X0008710Y0002890D01*
X0009029Y0002718D01*
X0009352Y0002554D01*
X0009679Y0002397D01*
X0010010Y0002248D01*
X0010344Y0002107D01*
X0010681Y0001975D01*
X0011021Y0001850D01*
X0011365Y0001734D01*
X0011711Y0001626D01*
X0012059Y0001527D01*
X0012410Y0001436D01*
X0012763Y0001353D01*
X0013118Y0001279D01*
X0013475Y0001214D01*
X0013833Y0001157D01*
X0014192Y0001109D01*
X0014552Y0001070D01*
X0014913Y0001039D01*
X0015275Y0001018D01*
X0015638Y0001004D01*
X0016000Y0001000D01*
X0047000Y0101000D02*
X0047002Y0101126D01*
X0047008Y0101252D01*
X0047018Y0101378D01*
X0047032Y0101504D01*
X0047050Y0101629D01*
X0047072Y0101753D01*
X0047097Y0101877D01*
X0047127Y0102000D01*
X0047160Y0102121D01*
X0047198Y0102242D01*
X0047239Y0102361D01*
X0047284Y0102480D01*
X0047332Y0102596D01*
X0047384Y0102711D01*
X0047440Y0102824D01*
X0047500Y0102936D01*
X0047563Y0103045D01*
X0047629Y0103153D01*
X0047698Y0103258D01*
X0047771Y0103361D01*
X0047848Y0103462D01*
X0047927Y0103560D01*
X0048009Y0103656D01*
X0048095Y0103749D01*
X0048183Y0103840D01*
X0048274Y0103927D01*
X0048368Y0104012D01*
X0048464Y0104093D01*
X0048563Y0104172D01*
X0048664Y0104247D01*
X0048768Y0104319D01*
X0048874Y0104388D01*
X0048982Y0104454D01*
X0049092Y0104516D01*
X0049204Y0104574D01*
X0049317Y0104629D01*
X0049433Y0104680D01*
X0049550Y0104728D01*
X0049668Y0104772D01*
X0049788Y0104812D01*
X0049909Y0104848D01*
X0050031Y0104881D01*
X0050154Y0104910D01*
X0050278Y0104934D01*
X0050402Y0104955D01*
X0050527Y0104972D01*
X0050653Y0104985D01*
X0050779Y0104994D01*
X0050905Y0104999D01*
X0051032Y0105000D01*
X0051158Y0104997D01*
X0051284Y0104990D01*
X0051410Y0104979D01*
X0051535Y0104964D01*
X0051660Y0104945D01*
X0051784Y0104922D01*
X0051908Y0104896D01*
X0052030Y0104865D01*
X0052152Y0104831D01*
X0052272Y0104792D01*
X0052391Y0104750D01*
X0052509Y0104705D01*
X0052625Y0104655D01*
X0052740Y0104602D01*
X0052852Y0104545D01*
X0052963Y0104485D01*
X0053072Y0104421D01*
X0053179Y0104354D01*
X0053284Y0104284D01*
X0053387Y0104210D01*
X0053487Y0104133D01*
X0053585Y0104053D01*
X0053680Y0103970D01*
X0053772Y0103884D01*
X0053862Y0103795D01*
X0053949Y0103703D01*
X0054032Y0103609D01*
X0054113Y0103512D01*
X0054191Y0103412D01*
X0054266Y0103310D01*
X0054337Y0103206D01*
X0054405Y0103099D01*
X0054469Y0102991D01*
X0054530Y0102880D01*
X0054588Y0102768D01*
X0054642Y0102654D01*
X0054692Y0102538D01*
X0054739Y0102421D01*
X0054782Y0102302D01*
X0054821Y0102182D01*
X0054857Y0102061D01*
X0054888Y0101938D01*
X0054916Y0101815D01*
X0054940Y0101691D01*
X0054960Y0101566D01*
X0054976Y0101441D01*
X0054988Y0101315D01*
X0054996Y0101189D01*
X0055000Y0101063D01*
X0055000Y0100937D01*
X0054996Y0100811D01*
X0054988Y0100685D01*
X0054976Y0100559D01*
X0054960Y0100434D01*
X0054940Y0100309D01*
X0054916Y0100185D01*
X0054888Y0100062D01*
X0054857Y0099939D01*
X0054821Y0099818D01*
X0054782Y0099698D01*
X0054739Y0099579D01*
X0054692Y0099462D01*
X0054642Y0099346D01*
X0054588Y0099232D01*
X0054530Y0099120D01*
X0054469Y0099009D01*
X0054405Y0098901D01*
X0054337Y0098794D01*
X0054266Y0098690D01*
X0054191Y0098588D01*
X0054113Y0098488D01*
X0054032Y0098391D01*
X0053949Y0098297D01*
X0053862Y0098205D01*
X0053772Y0098116D01*
X0053680Y0098030D01*
X0053585Y0097947D01*
X0053487Y0097867D01*
X0053387Y0097790D01*
X0053284Y0097716D01*
X0053179Y0097646D01*
X0053072Y0097579D01*
X0052963Y0097515D01*
X0052852Y0097455D01*
X0052740Y0097398D01*
X0052625Y0097345D01*
X0052509Y0097295D01*
X0052391Y0097250D01*
X0052272Y0097208D01*
X0052152Y0097169D01*
X0052030Y0097135D01*
X0051908Y0097104D01*
X0051784Y0097078D01*
X0051660Y0097055D01*
X0051535Y0097036D01*
X0051410Y0097021D01*
X0051284Y0097010D01*
X0051158Y0097003D01*
X0051032Y0097000D01*
X0050905Y0097001D01*
X0050779Y0097006D01*
X0050653Y0097015D01*
X0050527Y0097028D01*
X0050402Y0097045D01*
X0050278Y0097066D01*
X0050154Y0097090D01*
X0050031Y0097119D01*
X0049909Y0097152D01*
X0049788Y0097188D01*
X0049668Y0097228D01*
X0049550Y0097272D01*
X0049433Y0097320D01*
X0049317Y0097371D01*
X0049204Y0097426D01*
X0049092Y0097484D01*
X0048982Y0097546D01*
X0048874Y0097612D01*
X0048768Y0097681D01*
X0048664Y0097753D01*
X0048563Y0097828D01*
X0048464Y0097907D01*
X0048368Y0097988D01*
X0048274Y0098073D01*
X0048183Y0098160D01*
X0048095Y0098251D01*
X0048009Y0098344D01*
X0047927Y0098440D01*
X0047848Y0098538D01*
X0047771Y0098639D01*
X0047698Y0098742D01*
X0047629Y0098847D01*
X0047563Y0098955D01*
X0047500Y0099064D01*
X0047440Y0099176D01*
X0047384Y0099289D01*
X0047332Y0099404D01*
X0047284Y0099520D01*
X0047239Y0099639D01*
X0047198Y0099758D01*
X0047160Y0099879D01*
X0047127Y0100000D01*
X0047097Y0100123D01*
X0047072Y0100247D01*
X0047050Y0100371D01*
X0047032Y0100496D01*
X0047018Y0100622D01*
X0047008Y0100748D01*
X0047002Y0100874D01*
X0047000Y0101000D01*
X0057000Y0101000D02*
X0057002Y0101126D01*
X0057008Y0101252D01*
X0057018Y0101378D01*
X0057032Y0101504D01*
X0057050Y0101629D01*
X0057072Y0101753D01*
X0057097Y0101877D01*
X0057127Y0102000D01*
X0057160Y0102121D01*
X0057198Y0102242D01*
X0057239Y0102361D01*
X0057284Y0102480D01*
X0057332Y0102596D01*
X0057384Y0102711D01*
X0057440Y0102824D01*
X0057500Y0102936D01*
X0057563Y0103045D01*
X0057629Y0103153D01*
X0057698Y0103258D01*
X0057771Y0103361D01*
X0057848Y0103462D01*
X0057927Y0103560D01*
X0058009Y0103656D01*
X0058095Y0103749D01*
X0058183Y0103840D01*
X0058274Y0103927D01*
X0058368Y0104012D01*
X0058464Y0104093D01*
X0058563Y0104172D01*
X0058664Y0104247D01*
X0058768Y0104319D01*
X0058874Y0104388D01*
X0058982Y0104454D01*
X0059092Y0104516D01*
X0059204Y0104574D01*
X0059317Y0104629D01*
X0059433Y0104680D01*
X0059550Y0104728D01*
X0059668Y0104772D01*
X0059788Y0104812D01*
X0059909Y0104848D01*
X0060031Y0104881D01*
X0060154Y0104910D01*
X0060278Y0104934D01*
X0060402Y0104955D01*
X0060527Y0104972D01*
X0060653Y0104985D01*
X0060779Y0104994D01*
X0060905Y0104999D01*
X0061032Y0105000D01*
X0061158Y0104997D01*
X0061284Y0104990D01*
X0061410Y0104979D01*
X0061535Y0104964D01*
X0061660Y0104945D01*
X0061784Y0104922D01*
X0061908Y0104896D01*
X0062030Y0104865D01*
X0062152Y0104831D01*
X0062272Y0104792D01*
X0062391Y0104750D01*
X0062509Y0104705D01*
X0062625Y0104655D01*
X0062740Y0104602D01*
X0062852Y0104545D01*
X0062963Y0104485D01*
X0063072Y0104421D01*
X0063179Y0104354D01*
X0063284Y0104284D01*
X0063387Y0104210D01*
X0063487Y0104133D01*
X0063585Y0104053D01*
X0063680Y0103970D01*
X0063772Y0103884D01*
X0063862Y0103795D01*
X0063949Y0103703D01*
X0064032Y0103609D01*
X0064113Y0103512D01*
X0064191Y0103412D01*
X0064266Y0103310D01*
X0064337Y0103206D01*
X0064405Y0103099D01*
X0064469Y0102991D01*
X0064530Y0102880D01*
X0064588Y0102768D01*
X0064642Y0102654D01*
X0064692Y0102538D01*
X0064739Y0102421D01*
X0064782Y0102302D01*
X0064821Y0102182D01*
X0064857Y0102061D01*
X0064888Y0101938D01*
X0064916Y0101815D01*
X0064940Y0101691D01*
X0064960Y0101566D01*
X0064976Y0101441D01*
X0064988Y0101315D01*
X0064996Y0101189D01*
X0065000Y0101063D01*
X0065000Y0100937D01*
X0064996Y0100811D01*
X0064988Y0100685D01*
X0064976Y0100559D01*
X0064960Y0100434D01*
X0064940Y0100309D01*
X0064916Y0100185D01*
X0064888Y0100062D01*
X0064857Y0099939D01*
X0064821Y0099818D01*
X0064782Y0099698D01*
X0064739Y0099579D01*
X0064692Y0099462D01*
X0064642Y0099346D01*
X0064588Y0099232D01*
X0064530Y0099120D01*
X0064469Y0099009D01*
X0064405Y0098901D01*
X0064337Y0098794D01*
X0064266Y0098690D01*
X0064191Y0098588D01*
X0064113Y0098488D01*
X0064032Y0098391D01*
X0063949Y0098297D01*
X0063862Y0098205D01*
X0063772Y0098116D01*
X0063680Y0098030D01*
X0063585Y0097947D01*
X0063487Y0097867D01*
X0063387Y0097790D01*
X0063284Y0097716D01*
X0063179Y0097646D01*
X0063072Y0097579D01*
X0062963Y0097515D01*
X0062852Y0097455D01*
X0062740Y0097398D01*
X0062625Y0097345D01*
X0062509Y0097295D01*
X0062391Y0097250D01*
X0062272Y0097208D01*
X0062152Y0097169D01*
X0062030Y0097135D01*
X0061908Y0097104D01*
X0061784Y0097078D01*
X0061660Y0097055D01*
X0061535Y0097036D01*
X0061410Y0097021D01*
X0061284Y0097010D01*
X0061158Y0097003D01*
X0061032Y0097000D01*
X0060905Y0097001D01*
X0060779Y0097006D01*
X0060653Y0097015D01*
X0060527Y0097028D01*
X0060402Y0097045D01*
X0060278Y0097066D01*
X0060154Y0097090D01*
X0060031Y0097119D01*
X0059909Y0097152D01*
X0059788Y0097188D01*
X0059668Y0097228D01*
X0059550Y0097272D01*
X0059433Y0097320D01*
X0059317Y0097371D01*
X0059204Y0097426D01*
X0059092Y0097484D01*
X0058982Y0097546D01*
X0058874Y0097612D01*
X0058768Y0097681D01*
X0058664Y0097753D01*
X0058563Y0097828D01*
X0058464Y0097907D01*
X0058368Y0097988D01*
X0058274Y0098073D01*
X0058183Y0098160D01*
X0058095Y0098251D01*
X0058009Y0098344D01*
X0057927Y0098440D01*
X0057848Y0098538D01*
X0057771Y0098639D01*
X0057698Y0098742D01*
X0057629Y0098847D01*
X0057563Y0098955D01*
X0057500Y0099064D01*
X0057440Y0099176D01*
X0057384Y0099289D01*
X0057332Y0099404D01*
X0057284Y0099520D01*
X0057239Y0099639D01*
X0057198Y0099758D01*
X0057160Y0099879D01*
X0057127Y0100000D01*
X0057097Y0100123D01*
X0057072Y0100247D01*
X0057050Y0100371D01*
X0057032Y0100496D01*
X0057018Y0100622D01*
X0057008Y0100748D01*
X0057002Y0100874D01*
X0057000Y0101000D01*
D11*
X0071000Y0081000D03*
X0071000Y0071000D03*
X0071000Y0061000D03*
X0071000Y0051000D03*
X0041000Y0051000D03*
X0041000Y0061000D03*
X0041000Y0071000D03*
X0041000Y0081000D03*
D12*
X0101000Y0051000D03*
D13*
X0101000Y0061000D03*
X0101000Y0071000D03*
X0091000Y0071000D03*
X0091000Y0061000D03*
X0091000Y0051000D03*
D14*
X0071000Y0101000D03*
X0041000Y0101000D03*
D15*
X0029900Y0076300D03*
X0012100Y0076300D03*
X0012100Y0050700D03*
X0029900Y0050700D03*
X0036000Y0031000D03*
X0036000Y0021000D03*
X0036000Y0011000D03*
X0046000Y0011000D03*
X0046000Y0021000D03*
X0046000Y0031000D03*
X0056000Y0031000D03*
X0056000Y0021000D03*
X0056000Y0011000D03*
X0066000Y0011000D03*
X0066000Y0021000D03*
X0066000Y0031000D03*
X0076000Y0031000D03*
X0076000Y0021000D03*
X0076000Y0011000D03*
D16*
X0061000Y0091000D03*
X0051000Y0091000D03*
D17*
X0051000Y0084750D01*
X0064750Y0084750D01*
X0067250Y0087250D01*
X0074750Y0087250D01*
X0091000Y0071000D01*
X0091000Y0051000D02*
X0083500Y0043500D01*
X0083500Y0041000D01*
X0083500Y0028500D01*
X0076000Y0021000D01*
X0071000Y0041000D02*
X0083500Y0041000D01*
X0071000Y0041000D02*
X0061000Y0051000D01*
X0061000Y0073500D01*
X0068500Y0081000D01*
X0071000Y0081000D01*
X0051000Y0084750D02*
X0051000Y0061000D01*
X0041000Y0051000D01*
D18*
X0071000Y0051000D02*
X0081000Y0051000D01*
X0091000Y0061000D01*
M02*
